<svg version="1.1" xmlns="http://www.w3.org/2000/svg" xmlns:xlink="http://www.w3.org/1999/xlink" width="153.05" height="225.9576" viewBox="0,0,153.05,225.9576"><defs><linearGradient x1="278.5506" y1="58.83613" x2="278.5506" y2="128.87482" gradientUnits="userSpaceOnUse" id="color-1"><stop offset="0" stop-color="#563408"/><stop offset="1" stop-color="#e5ba5e"/></linearGradient><linearGradient x1="278.5471" y1="65.04112" x2="278.5471" y2="135.07983" gradientUnits="userSpaceOnUse" id="color-2"><stop offset="0" stop-color="#563408"/><stop offset="1" stop-color="#e5ba5e"/></linearGradient><linearGradient x1="284.3871" y1="61.39113" x2="284.3871" y2="131.42983" gradientUnits="userSpaceOnUse" id="color-3"><stop offset="0" stop-color="#563408"/><stop offset="1" stop-color="#e5ba5e"/></linearGradient><linearGradient x1="282.4178" y1="52.20263" x2="282.4178" y2="122.24133" gradientUnits="userSpaceOnUse" id="color-4"><stop offset="0" stop-color="#563408"/><stop offset="1" stop-color="#e5ba5e"/></linearGradient><linearGradient x1="272.7106" y1="55.18613" x2="272.7106" y2="125.22483" gradientUnits="userSpaceOnUse" id="color-5"><stop offset="0" stop-color="#563408"/><stop offset="1" stop-color="#e5ba5e"/></linearGradient><linearGradient x1="272.7071" y1="61.39113" x2="272.7071" y2="131.42983" gradientUnits="userSpaceOnUse" id="color-6"><stop offset="0" stop-color="#563408"/><stop offset="1" stop-color="#e5ba5e"/></linearGradient><linearGradient x1="272.6971" y1="69.05612" x2="272.6971" y2="139.09482" gradientUnits="userSpaceOnUse" id="color-7"><stop offset="0" stop-color="#563408"/><stop offset="1" stop-color="#e5ba5e"/></linearGradient><linearGradient x1="264.9651" y1="51.53613" x2="264.9651" y2="121.57483" gradientUnits="userSpaceOnUse" id="color-8"><stop offset="0" stop-color="#563408"/><stop offset="1" stop-color="#e5ba5e"/></linearGradient><linearGradient x1="264.9686" y1="57.74113" x2="264.9686" y2="127.77983" gradientUnits="userSpaceOnUse" id="color-9"><stop offset="0" stop-color="#563408"/><stop offset="1" stop-color="#e5ba5e"/></linearGradient><linearGradient x1="257.4058" y1="65.72732" x2="257.4058" y2="135.76603" gradientUnits="userSpaceOnUse" id="color-10"><stop offset="0" stop-color="#563408"/><stop offset="1" stop-color="#e5ba5e"/></linearGradient><linearGradient x1="257.3959" y1="58.06233" x2="257.3959" y2="128.10091" gradientUnits="userSpaceOnUse" id="color-11"><stop offset="0" stop-color="#563408"/><stop offset="1" stop-color="#e5ba5e"/></linearGradient><linearGradient x1="264.9786" y1="65.40613" x2="264.9786" y2="135.44483" gradientUnits="userSpaceOnUse" id="color-12"><stop offset="0" stop-color="#563408"/><stop offset="1" stop-color="#e5ba5e"/></linearGradient><linearGradient x1="284.23" y1="70.82403" x2="284.23" y2="70.82403" gradientUnits="userSpaceOnUse" id="color-13"><stop offset="0" stop-color="#563408"/><stop offset="1" stop-color="#e5ba5e"/></linearGradient><linearGradient x1="257.7573" y1="51.85733" x2="257.7573" y2="121.89593" gradientUnits="userSpaceOnUse" id="color-14"><stop offset="0" stop-color="#5c3300"/><stop offset="1" stop-color="#e6bb5f"/></linearGradient><linearGradient x1="259.1409" y1="50.50023" x2="259.1409" y2="120.53883" gradientUnits="userSpaceOnUse" id="color-15"><stop offset="0" stop-color="#5c3300"/><stop offset="1" stop-color="#e6bb5f"/></linearGradient><linearGradient x1="259.2136" y1="56.70523" x2="259.2136" y2="126.74383" gradientUnits="userSpaceOnUse" id="color-16"><stop offset="0" stop-color="#5c3300"/><stop offset="1" stop-color="#e6bb5f"/></linearGradient><linearGradient x1="258.298" y1="64.02491" x2="258.298" y2="134.06353" gradientUnits="userSpaceOnUse" id="color-17"><stop offset="0" stop-color="#5c3300"/><stop offset="1" stop-color="#e6bb5f"/></linearGradient><linearGradient x1="280.2271" y1="49.24323" x2="280.2271" y2="119.28193" gradientUnits="userSpaceOnUse" id="color-18"><stop offset="0" stop-color="#492800"/><stop offset="1" stop-color="#e6bb5f"/></linearGradient><linearGradient x1="278.6742" y1="54.75763" x2="278.6742" y2="124.79633" gradientUnits="userSpaceOnUse" id="color-19"><stop offset="0" stop-color="#492800"/><stop offset="1" stop-color="#e6bb5f"/></linearGradient><linearGradient x1="275.9126" y1="60.86863" x2="275.9126" y2="130.90732" gradientUnits="userSpaceOnUse" id="color-20"><stop offset="0" stop-color="#492800"/><stop offset="1" stop-color="#e6bb5f"/></linearGradient></defs><g transform="translate(-174.275,-59.32993)"><g data-paper-data="{&quot;isPaintingLayer&quot;:true}" fill-rule="nonzero" stroke-linejoin="miter" stroke-miterlimit="10" stroke-dasharray="" stroke-dashoffset="0" style="mix-blend-mode: normal"><g data-paper-data="{&quot;origPos&quot;:null,&quot;index&quot;:null}" stroke="none" stroke-width="1" stroke-linecap="butt"><path d="M287.8,98.25001c0,26.7 3.1,29.4 -0.4,30.5c-2.3,0.8 -3.6,-4.1 -3.6,-30.8c0,-26.7 -16.7,-26.2 -15.9,-28c8.4,-8.4 20,10.7 19.9,28.3z" fill="url(#color-1)"/><path d="M286.1,104.45003c0,26.7 3.1,29.4 -0.4,30.5c-2.3,0.8 -3.6,-4.1 -3.6,-30.8c0,-26.7 -13.1,-29.3 -12.3,-31.1c8.3,-8.4 16.3,13.8 16.3,31.4z" fill="url(#color-2)"/><path d="M291.9,100.85001c0,26.7 3.1,29.4 -0.4,30.5c-2.3,0.8 -3.6,-4.1 -3.6,-30.8c0,-26.7 -13.1,-29.3 -12.3,-31.1c8.3,-8.4 16.3,13.7 16.3,31.4z" fill="url(#color-3)"/><path d="M272.7,63.35003c13.4,-4 21,9.4 19.3,27.8c-2.5,26.6 -4.5,27.7 -8,26.7c-2.3,0.7 4.6,0.2 4.6,-26.5c0,-26.7 -16.7,-26.2 -15.9,-28z" fill="url(#color-4)"/><path d="M282,94.65003c0,26.7 3.1,29.4 -0.4,30.5c-2.3,0.8 -3.6,-4.1 -3.6,-30.8c0,-26.7 -16.7,-26.2 -15.9,-28c8.3,-8.4 20,10.6 19.9,28.3z" fill="url(#color-5)"/><path d="M280.3,100.85001c0,26.7 3.1,29.4 -0.4,30.5c-2.4,0.8 -3.7,-4.1 -3.7,-30.8c0,-26.7 -13.1,-29.3 -12.3,-31.1c8.4,-8.4 16.3,13.7 16.4,31.4z" fill="url(#color-6)"/><path d="M277.7,108.45002c0,26.7 3.1,29.4 -0.4,30.5c-2.3,0.8 -3.6,-4.1 -3.6,-30.8c0,-26.7 -8,-35.1 -7.2,-36.9c4.7,-10.6 11.2,19.6 11.2,37.2z" fill="url(#color-7)"/><path d="M259.6,90.65003c0,26.7 -1.3,31.5 -3.6,30.8c-3.5,-1.1 -0.4,-3.8 -0.4,-30.5c0,-17.6 11.7,-36.7 20,-28.3c0.8,1.8 -16,1.3 -16,28z" fill="url(#color-8)"/><path d="M261.5,96.95002c0,26.7 -1.3,31.5 -3.6,30.8c-3.5,-1.1 -0.4,-3.8 -0.4,-30.5c0,-17.7 8,-39.9 16.3,-31.5c0.7,1.8 -12.3,4.5 -12.3,31.2z" fill="url(#color-9)"/><path d="M256.5,104.95001c0,26.7 -1.4,31.5 -3.7,30.8c-3.5,-1.1 -0.4,-3.8 -0.4,-30.5c0,-17.7 6.5,-47.9 11.2,-37.3c0.8,1.7 -7.1,10.3 -7.1,37z" fill="url(#color-10)"/><path d="M253.9,97.35003c0,26.7 -1.3,31.5 -3.6,30.8c-3.5,-1.1 -0.4,-3.8 -0.4,-30.5c0,-17.7 8,-39.9 16.3,-31.5c0.8,1.7 -12.3,4.5 -12.3,31.2z" fill="url(#color-11)"/><path d="M264.1,104.65003c0,26.7 -1.4,31.5 -3.7,30.8c-3.5,-1.1 -0.4,-3.8 -0.4,-30.5c0,-17.7 6.5,-47.9 11.2,-37.3c0.8,1.7 -7.1,10.3 -7.1,37z" fill="url(#color-12)"/><path d="M284.2,70.85003" fill="url(#color-13)"/></g><g data-paper-data="{&quot;index&quot;:null}"><g data-paper-data="{&quot;origPos&quot;:null}" fill="none" stroke-width="5.475" stroke-linecap="butt"><path d="M239.1,282.55003c-20.3,0 -36.8,-22.1 -36.8,-49.4c0,-27.3 16.5,-49.4 36.8,-49.4c20.3,0 36.8,22.1 36.8,49.4c0,27.3 -16.5,49.4 -36.8,49.4z" stroke="#23262b"/><path d="M239.1,277.95003c-18.5,0 -33.4,-20 -33.4,-44.8c0,-24.7 14.9,-44.8 33.4,-44.8c18.5,0 33.4,20 33.4,44.8c0,24.7 -14.9,44.8 -33.4,44.8z" stroke="#6c7585"/></g><g data-paper-data="{&quot;origPos&quot;:null}" fill="none" stroke-linecap="butt"><g data-paper-data="{&quot;origPos&quot;:null}"><path d="M200.33333,282.55001c-4.4,0 -8,-4.2 -8,-9.5c0,-5.3 3.6,-9.5 8,-9.5c4.4,0 8,4.3 8,9.5c0,5.2 -3.6,9.5 -8,9.5z" stroke="#23262b" stroke-width="5.475"/><path d="M200.43333,279.05001c-2.7,0 -5,-2.7 -5,-6c0,-3.3 2.3,-6 5,-6c2.7,0 5,2.7 5,6c0,3.3 -2.3,6 -5,6z" stroke="#6c7585" stroke-width="4.745"/></g><path d="M202.5,276.35003v-66.4h38.7v66.4z" data-paper-data="{&quot;origPos&quot;:null}" stroke="#000000" stroke-width="3.65"/><g data-paper-data="{&quot;origPos&quot;:null}"><path d="M240.36667,282.55001c-4.4,0 -8,-4.2 -8,-9.5c0,-5.3 3.6,-9.5 8,-9.5c4.4,0 8,4.3 8,9.5c0,5.2 -3.6,9.5 -8,9.5z" stroke="#23262b" stroke-width="5.475"/><path d="M240.46667,279.05001c-2.7,0 -5,-2.7 -5,-6c0,-3.3 2.2,-6 5,-6c2.7,0 5,2.7 5,6c0,3.3 -2.3,6 -5,6z" stroke="#6c7585" stroke-width="4.745"/></g></g><g data-paper-data="{&quot;origPos&quot;:null}" fill="none" stroke="#000000" stroke-width="3.65" stroke-linecap="round"><path d="M229.4,218.45003l-27,53.3l-26.3,0.2" data-paper-data="{&quot;origPos&quot;:null}"/><path d="M258.6,218.45003l-27,53.3l-26.3,0.2" data-paper-data="{&quot;origPos&quot;:null}"/></g><g data-paper-data="{&quot;origPos&quot;:null}"><path d="M202.3,176.65003h58.4" fill="none" stroke="#000000" stroke-width="3.65" stroke-linecap="round"/><g stroke-linecap="butt"><path d="M210.1,217.55003v-27.7h42.4v27.7z" fill="#282c2c" stroke="none" stroke-width="1"/><path d="M209.4,219.05003v-41.8h43.1v41.8z" fill="none" stroke="#000000" stroke-width="3.65"/></g></g><g><path d="M228.3,249.05003v-50.9h75.6v50.9z" data-paper-data="{&quot;origPos&quot;:null}" fill="none" stroke="#000000" stroke-width="3.65" stroke-linecap="butt"/><g data-paper-data="{&quot;origPos&quot;:null}"><path d="M202.1,220.15003v-21.9h101.8v21.9z" data-paper-data="{&quot;origPos&quot;:null}" fill="#4d535e" stroke="#000000" stroke-width="3.65" stroke-linecap="butt"/><g data-paper-data="{&quot;origPos&quot;:null}"><path d="M261.6,196.40003v-35.75h42.7v35.75z" data-paper-data="{&quot;origPos&quot;:null}" fill="#4d535e" stroke="none" stroke-width="1" stroke-linecap="butt"/><path d="M260.5,198.55003c0,0 -0.9,-33.3 4.7,-45c4.4,-9.4 16.8,-0.6 16.8,-0.6" data-paper-data="{&quot;origPos&quot;:null}" fill="none" stroke="#000000" stroke-width="3.65" stroke-linecap="round"/><path d="M304,198.55003c0,0 -0.9,-33.3 4.7,-45c4.4,-9.4 16.8,-0.6 16.8,-0.6" data-paper-data="{&quot;origPos&quot;:null}" fill="none" stroke="#000000" stroke-width="3.65" stroke-linecap="round"/></g></g></g></g><g data-paper-data="{&quot;origPos&quot;:null,&quot;index&quot;:null}" stroke="none" stroke-width="1" stroke-linecap="butt"><path d="M237.6,158.05003c0,0 3.6,0.9 5.6,1.7c2.7,1 3,5.9 3,5.9l-18.6,21l-4.7,-5.1z" fill="#72471e"/><path d="M211.7,196.75003c0,0 0.4,-5.8 2.5,-9.2c2.3,-3.7 8.9,-7.5 8.9,-7.5l5.4,2.8c0,0 1.4,6.9 -2.4,11.7c-1.7,2.1 -6.2,5.6 -6.2,5.6c0,0 -2.9,0.3 -2.8,-0.6c0.1,-1 4.2,-5.2 3.1,-5.5c-1.5,-0.4 -5.4,7.5 -6.7,6.7c-1.4,-0.9 -1.8,-4 -1.8,-4z" fill="#764a21"/></g><g data-paper-data="{&quot;index&quot;:null}" stroke="none" stroke-width="1" stroke-linecap="butt"><path d="M205.5,261.05003h-14.3l7.1,-64.5l48.1,-8.2h25.6c0,0 -2.8,16.1 -16.3,22.7c-12.8,6.2 -41.1,-1.7 -41.1,-1.7l-9.1,51.6z" data-paper-data="{&quot;origPos&quot;:null}" fill="#a6bac7"/><path d="M176.2,270.25003l6.3,-6.8l8.1,-2.3l12.6,-0.6l0.7,9.7z" data-paper-data="{&quot;origPos&quot;:null}" fill="#d6d6d6"/></g><g data-paper-data="{&quot;origPos&quot;:null,&quot;index&quot;:null}" stroke="none" stroke-width="1" stroke-linecap="butt"><path d="M235.5,163.95c0,0 1.8,-50 11.8,-46.6c5.5,1.7 -0.9,48.6 -0.9,48.6c0,0 -4.3,1.7 -6.8,1.3c-2.5,-0.4 -4.1,-3.3 -4.1,-3.3z" fill="#72471e"/><path d="M231.9,144.05003c0,0 9.1,-32.2 17.2,-30.2c9.2,2.2 2,36.3 2,36.3z" fill="#c09898"/></g><g data-paper-data="{&quot;index&quot;:null}" stroke="none" stroke-width="1" stroke-linecap="butt"><path d="M218.6,260.65003v-58.9l50.8,-13.5h26.2c0,0 5.8,14.4 -13.2,24.5c-7.4,4 -44.5,-0.6 -44.5,-0.6l-5.1,48.7z" data-paper-data="{&quot;origPos&quot;:null}" fill="#a6bac7"/><path d="M204.3,270.25003l6.3,-6.8l8.1,-2.3l12.6,-0.6l0.2,10.2z" data-paper-data="{&quot;origPos&quot;:null}" fill="#d6d6d6"/></g><path d="M249.1,190.35003l-3.2,-77.5c0,0 13.3,-3.8 25.8,-3.6c12.5,0.2 23.8,5.2 23.8,5.2l2.7,76.9z" data-paper-data="{&quot;origPos&quot;:null,&quot;index&quot;:null}" fill="#d0a5a5" stroke="none" stroke-width="1" stroke-linecap="butt"/><g data-paper-data="{&quot;origPos&quot;:null,&quot;index&quot;:null}"><g data-paper-data="{&quot;origPos&quot;:null}"><path d="M311.8,176.65003h-58.4" fill="none" stroke="#000000" stroke-width="3.65" stroke-linecap="round"/><g stroke-linecap="butt"><path d="M261.3,217.55003v-27.7h42.3v27.7z" fill="#282c2c" stroke="none" stroke-width="1"/><path d="M260.5,219.05003v-41.8h43.1v41.8z" fill="none" stroke="#000000" stroke-width="3.65"/></g></g><g data-paper-data="{&quot;origPos&quot;:null}" fill="none" stroke-width="5.475" stroke-linecap="butt"><path d="M285,282.55003c-20.3,0 -36.8,-22.1 -36.8,-49.4c0,-27.3 16.5,-49.4 36.8,-49.4c20.3,0 36.8,22.1 36.8,49.4c0,27.3 -16.5,49.4 -36.8,49.4z" stroke="#23262b"/><path d="M285.4,278.45003c-18.4,0 -33.4,-20.1 -33.4,-44.8c0,-24.7 14.9,-44.8 33.4,-44.8c18.5,0 33.4,20 33.4,44.8c0,24.7 -15,44.8 -33.4,44.8z" stroke="#6c7585"/></g></g><g data-paper-data="{&quot;origPos&quot;:null,&quot;index&quot;:null}" stroke="none" stroke-width="1" stroke-linecap="butt"><path d="M310.5,165.35002c0,0 -28.5,-47.7 -18.8,-49.6c12.3,-3 29.5,46.2 29.5,46.2c0,0 -2.9,2.7 -5,3.4c-2.1,0.7 -5.7,0 -5.7,0z" fill="#764a21"/><path d="M298.5,151.75003c0,0 -19.7,-32 -5.9,-37c5.8,-2.1 23.1,24.2 23.1,24.2z" fill="#c09898"/></g><g data-paper-data="{&quot;origPos&quot;:null,&quot;index&quot;:null}" fill="#764a21" stroke="none" stroke-width="1" stroke-linecap="butt"><path d="M279.5,111.05001c0,0 3.5,1.2 2,4.6c-3.9,6.9 -22.7,4.5 -22.8,0c-0.1,-2.8 4.8,-3.7 4.8,-3.7l-0.1,-9.1l15.2,-3.4z" data-paper-data="{&quot;origPos&quot;:null}"/><path d="M287.2,84.95001c1.3,0.4 1.8,2.7 1,5.1c-0.8,2.4 -2.6,3.9 -4,3.4c-1.3,-0.4 -1.8,-2.7 -1,-5.1c0.8,-2.3 2.6,-3.9 4,-3.4z" data-paper-data="{&quot;origPos&quot;:null}"/><path d="M251.71667,85.85001c-2,-13.7 5.48333,-25.8 16.88333,-25.2c15,0.7 17.2,10.3 17.2,23.1c0,12.8 -7.6,22.5 -19.4,22.3c-6.8,-0.3 -14.7,-7.1 -14.7,-19.9z" data-paper-data="{&quot;origPos&quot;:null}"/></g><path d="M251.7,77.35001c0.5,-6.5 5.4,-17.3 16.8,-16.7c21.4,-0.2 17.9,24.7 17.9,24.7l-2.6,0.8c0,0 -1.4,-13 -7.1,-15.9c-2.3,-1.1 -14.8,-1.5 -17.3,-1c-8.1,1.6 -7.7,8 -7.7,8.1z" data-paper-data="{&quot;origPos&quot;:null,&quot;index&quot;:null}" fill="#38220f" stroke="none" stroke-width="1" stroke-linecap="butt"/><path d="M266.5,98.35003c1.8,0 4,-0.7 4,0c0,0.8 -1.7,2.7 -3.5,2.7c-1.7,0 -3.7,-1.5 -3.7,-2.2c0,-0.7 1.5,-0.4 3.2,-0.5z" data-paper-data="{&quot;index&quot;:null}" fill="#000000" stroke="none" stroke-width="1" stroke-linecap="butt"/><path d="M267.9,91.95003c0,0 -0.9,0.5 -1.6,0.6c-1.5,0.1 -2.2,-0.6 -2.2,-0.6" data-paper-data="{&quot;index&quot;:null}" fill="none" stroke="#000000" stroke-width="1.46" stroke-linecap="round"/><g data-paper-data="{&quot;origPos&quot;:null,&quot;index&quot;:null}"><path d="M269.3,79.65003c0,0 2,-0.9 3.7,-0.8c1.5,0 4.4,0.8 4.4,0.8" fill="none" stroke="#000000" stroke-width="1.46" stroke-linecap="round"/><g><path d="M270.1,83.75003c0,0 0.4,-1.3 2.9,-1.5c2.3,-0.2 4.5,1.7 4.5,1.7" fill="none" stroke="#000000" stroke-width="1.46" stroke-linecap="round"/><path d="M272.1,86.95003c-1.2,0 -2.1,-1 -2.1,-2.2c0,-1.2 0.9,-2.2 2.1,-2.2c1.2,0 2.1,1 2.1,2.2c0,1.2 -1,2.2 -2.1,2.2z" fill="#000000" stroke="none" stroke-width="1" stroke-linecap="butt"/></g></g><g data-paper-data="{&quot;origPos&quot;:null,&quot;index&quot;:null}"><path d="M254.8,79.25003c0,0 1.7,-0.4 3.2,-0.5c1.7,0 4,0.8 4,0.8" fill="none" stroke="#000000" stroke-width="1.46" stroke-linecap="round"/><g><path d="M254.6,83.85003c0,0 2.2,-1.9 4.5,-1.7c2.4,0.2 2.9,1.5 2.9,1.5" fill="none" stroke="#000000" stroke-width="1.46" stroke-linecap="round"/><path d="M255.2,84.45003c0,-1.2 0.9,-2.2 2.1,-2.2c1.2,0 2.1,1 2.1,2.2c0,1.2 -0.9,2.2 -2.1,2.2c-1.1,0 -2.1,-1 -2.1,-2.2z" fill="#000000" stroke="none" stroke-width="1" stroke-linecap="butt"/></g></g><g data-paper-data="{&quot;origPos&quot;:null,&quot;index&quot;:null}" stroke="none" stroke-width="1" stroke-linecap="butt"><g data-paper-data="{&quot;origPos&quot;:null}"><path d="M252.4,91.05003c0,26.7 -1.3,31.5 -3.6,30.8c-3.5,-1.1 -0.4,-3.8 -0.4,-30.5c0,-17.6 11.7,-36.7 20,-28.3c0.7,1.7 -16,1.3 -16,28z" fill="url(#color-14)"/><path d="M252,88.45003c0,26.8 1.1,32.8 -1.2,32.1c-3.6,-1.1 -3,-7.1 -3,-33.8c0,-17.7 14.3,-33.5 22.6,-25.1c0.8,1.7 -18.4,0 -18.4,26.8z" data-paper-data="{&quot;origPos&quot;:null}" fill="url(#color-15)"/><path d="M252.9,93.25002c0,26.7 2.1,34.1 -0.2,33.4c-3.5,-1.1 -2.8,-8.1 -2.8,-34.8c0,-17.7 10.4,-35.5 18.7,-27.1c0.8,1.8 -15.7,1.8 -15.7,28.5z" fill="url(#color-16)"/><path d="M253.6,94.85002c0,26.7 6.2,29.1 4.6,31.7c-2.7,4.4 -8.4,-4.8 -8.4,-31.5c0,-17.7 12.2,-39.4 16.9,-28.8c0.8,1.7 -13.1,1.9 -13.1,28.6z" fill="url(#color-17)"/></g><g data-paper-data="{&quot;origPos&quot;:null}"><path d="M269.6,60.35003c13.4,-4 20,10.6 20,28.3c0,26.7 3.1,29.4 -0.4,30.5c-2.3,0.8 -3.6,-4.1 -3.6,-30.8c0,-26.7 -16.8,-26.2 -16,-28z" fill="url(#color-18)"/><path d="M267.3,63.35003c8.4,-8.4 21.5,13.1 21.5,30.8c0,26.7 3.1,29.4 -0.4,30.5c-2.3,0.8 -3.6,-4.1 -3.6,-30.8c0,-26.7 -18.3,-28.6 -17.5,-30.5z" fill="url(#color-19)"/><path d="M264.3,64.95003c19.2,-4.7 21.9,17.6 21.9,35.3c0,26.7 3.1,29.4 -0.4,30.5c-2.3,0.8 -5.2,-4.1 -3.6,-30.8c2.4,-39.6 -19.3,-27 -17.9,-35z" fill="url(#color-20)"/></g></g><g data-paper-data="{&quot;origPos&quot;:null,&quot;origRot&quot;:0,&quot;index&quot;:null}" fill="#764a21" stroke="none" stroke-width="1" stroke-linecap="butt"><path d="M294.45428,177.58951l17.0036,-21.99313c0,0 4.97319,-0.65375 6.5933,1.66687c1.1952,1.8416 2.96094,5.05597 2.96094,5.05597l-20.47222,18.76534z" data-paper-data="{&quot;origPos&quot;:null}"/><path d="M285.74971,193.45267c0,0 -3.30081,0.06794 -4.27084,-1.28448c-1.05972,-1.14759 6.40148,-6.03333 5.73106,-7.40101c-0.55021,-0.97328 -4.22649,3.51948 -5.11516,3.76499c-0.99362,0.15072 -1.03614,-2.65074 -1.03614,-2.65074c0,0 2.96194,-4.75677 4.86273,-6.75602c4.28568,-4.32353 11.51705,-3.8907 11.51705,-3.8907l3.55508,4.92559c0,0 -2.94993,6.95901 -6.31827,9.63376c-3.17877,2.46484 -8.9255,3.65862 -8.9255,3.65862z" data-paper-data="{&quot;origPos&quot;:null}"/></g></g></g></svg>