<svg version="1.1" xmlns="http://www.w3.org/2000/svg" xmlns:xlink="http://www.w3.org/1999/xlink" width="91.75482" height="252.03041" viewBox="0,0,91.75482,252.03041"><g transform="translate(-185.3971,-57.01959)"><g data-paper-data="{&quot;isPaintingLayer&quot;:true}" fill-rule="nonzero" stroke-linejoin="miter" stroke-miterlimit="10" stroke-dasharray="" stroke-dashoffset="0" style="mix-blend-mode: normal"><g data-paper-data="{&quot;index&quot;:null}" stroke="none" stroke-width="1" stroke-linecap="butt"><path d="M227.84899,309.05001l7.4,-6.8l9.4,-2.3l14.8,-0.6l0.9,9.7z" fill="#ebebeb"/><path d="M239.84899,300.75001l-4.7,-50.6l-6.6,-61.8h29.1l0.7,60.1l0.5,52.3z" fill="#00bcbd"/></g><g data-paper-data="{&quot;index&quot;:null}" stroke="none" stroke-width="1" stroke-linecap="butt"><path d="M189.94899,309.05001l7.4,-6.8l9.4,-2.3l14.8,-0.6l0.9,9.7z" fill="#ebebeb"/><path d="M202.64899,300.75001v-50.1l0.7,-62.3h30l-6.4,62l-3.7,50.4z" fill="#00bcbd"/></g><g data-paper-data="{&quot;origPos&quot;:null,&quot;index&quot;:null}" stroke="none" stroke-width="1" stroke-linecap="butt"><path d="M191.84899,164.17221c0,0 2.3,-50 14.9,-46.6c7,1.7 -1.1,48.6 -1.1,48.6c0,0 -5.4,1.7 -8.6,1.3c-3.1,-0.4 -5.2,-3.3 -5.2,-3.3z" fill="#9e6b30"/><path d="M187.34899,143.07223c0,0 11.5,-31 21.6,-29c11.5,2.2 2.5,35.1 2.5,35.1z" fill="#62a7a7"/></g><g data-paper-data="{&quot;origPos&quot;:null,&quot;index&quot;:null}" fill="#9e6b30" stroke="none" stroke-width="1" stroke-linecap="butt"><g data-paper-data="{&quot;origPos&quot;:null}"><path d="M192.049,163.67222c0,0 4.6,-0.8 7.3,-1c3.6,-0.3 6.7,3.9 6.7,3.9l-8.8,27.1l-8.2,-2.4z" data-paper-data="{&quot;origPos&quot;:null}"/></g><path d="M192.53326,213.84508c-1.82405,-0.0537 -4.12649,-2.85169 -4.12649,-2.85169c0,0 -3.09452,-5.50217 -3.00789,-9.56204c0.14464,-4.3542 4.53963,-10.6227 4.53963,-10.6227l7.27682,0.31292c0,0 5.66479,5.90678 4.60277,11.81289c-0.42395,2.66838 -2.95909,7.77456 -2.95909,7.77456c0,0 -2.74142,1.4982 -3.27353,0.57795c-0.434,-0.90091 1.17803,-6.49478 -0.17478,-6.35369c-1.7646,0.16186 -0.99397,9.18106 -2.87745,8.9118z" data-paper-data="{&quot;origPos&quot;:null,&quot;index&quot;:null,&quot;origRot&quot;:0}"/></g><path d="M230.84899,198.55002c-12,0.1 -29.8,-2.7 -29.8,-2.7c0,0 0.2,-79.2 2.6,-80.4c2.6,-1.3 14.4,-6.4 27.9,-6.2c13.5,0.2 29.3,8.1 29.3,8.1l0.2,76.3c0,0 -17.9,4.7 -30.2,4.9z" data-paper-data="{&quot;index&quot;:null}" fill="#a7d2fe" stroke="none" stroke-width="1" stroke-linecap="butt"/><g data-paper-data="{&quot;index&quot;:null}" fill="#9e6b30" stroke="none" stroke-width="1" stroke-linecap="butt"><path d="M240.44901,111.05001c0,0 3.5,1.2 2,4.6c-3.9,6.9 -22.7,4.5 -22.8,0c-0.1,-2.8 4.8,-3.7 4.8,-3.7l-0.1,-9.1l15.2,-3.4z" data-paper-data="{&quot;origPos&quot;:null}"/><path d="M248.14901,84.95001c1.3,0.4 1.8,2.7 1,5.1c-0.8,2.4 -2.6,3.9 -4,3.4c-1.3,-0.4 -1.8,-2.7 -1,-5.1c0.8,-2.3 2.6,-3.9 4,-3.4z" data-paper-data="{&quot;origPos&quot;:null}"/><path d="M212.68651,85.85001c-2,-13.7 5.4625,-25.8 16.8625,-25.2c15,0.7 17.2,10.3 17.2,23.1c0,12.8 -7.6,22.5 -19.4,22.3c-6.8,-0.3 -14.7,-7.1 -14.7,-19.9z" data-paper-data="{&quot;origPos&quot;:null}"/></g><path d="M227.44899,98.35002c1.8,0 4,-0.7 4,0c0,0.8 -1.8,2.7 -3.5,2.7c-1.7,0 -3.7,-1.5 -3.7,-2.2c0,-0.7 1.4,-0.5 3.2,-0.5z" data-paper-data="{&quot;index&quot;:null}" fill="#000000" stroke="none" stroke-width="1" stroke-linecap="butt"/><path d="M227.24899,93.25002c0,0 -2.5,-1.4 -2.5,-2.1c-0.1,-1.5 1.4,-2.5 1.4,-2.5" data-paper-data="{&quot;origPos&quot;:null,&quot;index&quot;:null}" fill="none" stroke="#000000" stroke-width="1.46" stroke-linecap="round"/><path d="M245.54899,70.85002" data-paper-data="{&quot;index&quot;:null}" fill="none" stroke="#000000" stroke-width="4.38" stroke-linecap="round"/><g data-paper-data="{&quot;index&quot;:null}" stroke="none" stroke-width="1" stroke-linecap="butt"><path d="M264.04899,168.55002c0,0 -18.4,-51.6 -7.2,-51.3c14.3,-0.3 19.9,50.3 19.9,50.3c0,0 -3.8,2 -6.3,2.2c-2.5,0.2 -6.4,-1.2 -6.4,-1.2z" fill="#9e6b30"/><path d="M254.24899,152.55002c0,0 -12.7,-35.1 3.9,-36.9c7,-0.8 18.4,28.2 18.4,28.2z" fill="#62a7a7"/></g><g data-paper-data="{&quot;origPos&quot;:null,&quot;index&quot;:null}"><path d="M230.24899,79.65002c0,0 2,-0.9 3.7,-0.8c1.5,0 4.4,0.8 4.4,0.8" fill="none" stroke="#000000" stroke-width="1.46" stroke-linecap="round"/><g><path d="M231.04899,83.75002c0,0 0.4,-1.3 2.9,-1.5c2.3,-0.2 4.5,1.7 4.5,1.7" fill="none" stroke="#000000" stroke-width="1.46" stroke-linecap="round"/><path d="M233.04899,86.95002c-1.2,0 -2.1,-1 -2.1,-2.2c0,-1.2 0.9,-2.2 2.1,-2.2c1.2,0 2.1,1 2.1,2.2c0,1.2 -1,2.2 -2.1,2.2z" fill="#000000" stroke="none" stroke-width="1" stroke-linecap="butt"/></g></g><g data-paper-data="{&quot;origPos&quot;:null,&quot;index&quot;:null}"><path d="M215.74899,79.25002c0,0 1.7,-0.4 3.2,-0.5c1.7,0 4,0.8 4,0.8" fill="none" stroke="#000000" stroke-width="1.46" stroke-linecap="round"/><g><path d="M215.54899,82.85002c0,0 2.2,-0.9 4.5,-0.7c2.4,0.2 2.9,1.5 2.9,1.5" fill="none" stroke="#000000" stroke-width="1.46" stroke-linecap="round"/><path d="M215.94899,84.45002c0,-1.2 0.9,-2.2 2.1,-2.2c1.2,0 2.1,1 2.1,2.2c0,1.2 -0.9,2.2 -2.1,2.2c-1.2,0 -2.1,-1 -2.1,-2.2z" fill="#000000" stroke="none" stroke-width="1" stroke-linecap="butt"/></g></g><g data-paper-data="{&quot;index&quot;:null}" fill="#9e6b30" stroke="none" stroke-width="1" stroke-linecap="butt"><path d="M267.04899,196.15002l-3.2,-27.7c0,0 3.5,-3.9 6.7,-3.3c2.3,0.4 6.3,1.6 6.3,1.6l-2.1,27.7z"/><path d="M267.64899,215.55002c-1.9,-0.1 0.6,-8.8 -1.1,-9.3c-1.3,-0.4 -0.7,5.4 -1.4,6.2c-0.7,0.8 -3.1,-1.2 -3.1,-1.2c0,0 -1.5,-5.5 -1.4,-8.2c0.1,-6 6.8,-10.7 6.8,-10.7l7.2,1.1c0,0 3.1,7 2.4,11.3c-0.7,4 -4.8,8.8 -4.8,8.8c0,0 -2.8,2.3 -4.6,2z"/></g><path d="M212.64901,77.35001c0.5,-6.5 5.4,-17.3 16.8,-16.7c21.4,-0.2 17.9,24.7 17.9,24.7l-2.6,0.8c0,0 -0.9,-11.5 -6.6,-14.4c-2.3,-1.1 -14.8,-1.5 -17.3,-1c-8.1,1.6 -8.2,6.5 -8.2,6.6z" data-paper-data="{&quot;origPos&quot;:null,&quot;index&quot;:null}" fill="#4d2f15" stroke="none" stroke-width="1" stroke-linecap="butt"/><g data-paper-data="{&quot;origPos&quot;:null,&quot;index&quot;:null}" stroke="none" stroke-linecap="butt"><path d="M248.42591,84.50386c1.4,0 2.42308,1.64615 2.42308,3.94615c0,2.2 -0.3,4 -2.2,4c-0.22634,0 -0.42623,-0.043 -0.64515,-0.10048c-0.29248,-0.07679 1.25404,-1.58623 1.42977,-3.65336c0.34627,-4.07318 -2.4077,-4.19231 -1.0077,-4.19231z" data-paper-data="{&quot;origPos&quot;:null}" fill="#c5c5c5" stroke-width="1"/><path d="M246.54899,90.25002c-0.8,0 -1.5,-0.7 -1.5,-1.5c0,-0.8 0.7,-1.5 1.5,-1.5c0.8,0 1.5,0.7 1.5,1.5c0,0.8 -0.7,1.5 -1.5,1.5z" data-paper-data="{&quot;origPos&quot;:null}" fill="#f2f2f2" stroke-width="1"/><path d="M249.36717,84.68184c-0.28708,1.16191 -1.92381,-0.18182 -2.72727,1.31818c-0.32107,0.59941 0.30219,1.65459 -0.35833,2.07143c-0.93352,0.60866 -1.74441,-1.78428 -1.00531,-2.84416c1.7045,-2.44426 4.27304,-1.28257 4.09091,-0.54545z" data-paper-data="{&quot;origPos&quot;:null,&quot;origRot&quot;:0}" fill="#f2f2f2" stroke-width="0"/></g><g data-paper-data="{&quot;origPos&quot;:null,&quot;index&quot;:null}" fill="#000000" stroke="none" stroke-width="1" stroke-linecap="butt"><path d="M245.71564,60.58336c3.8577,2.57321 7.70131,5.4282 5.63334,7.96667c-2.41757,2.96762 -4.77395,-2.10453 -9.2,-4.3c-4.5749,-2.26931 -10.1,-0.2 -9.3,-4c0.45369,-2.15503 7.59829,-3.18085 12.86666,0.33333z" data-paper-data="{&quot;origPos&quot;:null}"/><path d="M246.01564,65.78336c3.31267,3.94395 7.40001,10.16667 4.93334,11.36667c-3.36797,1.63847 -4.33097,-4.1132 -9.3,-8.7c-5.2,-4.8 -11.2,-2.2 -10.4,-6c0.45369,-2.15503 9.34579,-3.12057 14.76666,3.33333z" data-paper-data="{&quot;origPos&quot;:null}"/><path d="M244.51564,68.98336c3.31267,3.94394 6.30001,10.86667 3.83334,12.06667c-3.36797,1.63847 -3.3,-3.4 -7.5,-8.7c-4.2,-5.3 -11,-3.5 -10.2,-7.3c0.45369,-2.15503 8.44579,-2.52057 13.86666,3.93333z" data-paper-data="{&quot;origPos&quot;:null}"/><path d="M240.71564,70.78336c3.31267,3.94395 0.50001,13.56667 -2.16666,12.36667c-3.96797,-1.16153 1.7443,-8.17299 -3.1,-11.7c-3.98472,-2.90117 -8.1,-0.4 -7.1,-4.8c0.45369,-2.15503 6.94579,-2.32057 12.36666,4.13333z" data-paper-data="{&quot;origPos&quot;:null}"/></g><g data-paper-data="{&quot;origPos&quot;:null,&quot;index&quot;:null}" fill="#000000" stroke="none" stroke-width="1" stroke-linecap="butt"><path d="M219.47924,57.75639c6.02065,-1.96392 12.37311,0.3801 12.13676,2.56965c-0.41675,3.86087 -4.7288,0.88151 -9.78169,1.62166c-4.88848,0.71607 -7.70045,4.60852 -9.07957,2.23789c0,0 -1.27344,-3.82029 6.7245,-6.4292z" data-paper-data="{&quot;origPos&quot;:null,&quot;index&quot;:null,&quot;origRot&quot;:0}"/><path d="M216.91381,63.04455c4.53746,-3.18444 12.32325,-2.08622 11.93431,0.64337c-0.38039,2.6696 -2.63581,-0.09551 -8.84376,3.30174c-5.93221,3.24636 -8.85993,10.19339 -11.73064,7.7878c-2.10248,-1.76183 3.68215,-8.25337 8.64009,-11.7329z" data-paper-data="{&quot;origPos&quot;:null,&quot;index&quot;:null,&quot;origRot&quot;:0}"/><path d="M228.28658,65.83242c0.91486,3.774 -8.43774,2.06705 -11.27396,8.20593c-2.73737,5.92492 -0.73084,8.14807 -3.93276,8.22341c-4.23338,0.09961 -1.62586,-8.03478 1.3657,-12.77736c5.22269,-6.6153 13.3222,-5.79227 13.84102,-3.65198z" data-paper-data="{&quot;origPos&quot;:null,&quot;index&quot;:null,&quot;origRot&quot;:0}"/></g></g></g></svg>