<svg version="1.1" xmlns="http://www.w3.org/2000/svg" xmlns:xlink="http://www.w3.org/1999/xlink" width="91.75483" height="254.39995" viewBox="0,0,91.75483,254.39995"><g transform="translate(-185.39709,-54.65008)"><g data-paper-data="{&quot;isPaintingLayer&quot;:true}" fill-rule="nonzero" stroke-linejoin="miter" stroke-miterlimit="10" stroke-dasharray="" stroke-dashoffset="0" style="mix-blend-mode: normal"><g data-paper-data="{&quot;origPos&quot;:null,&quot;index&quot;:null}" stroke="none" stroke-width="1" stroke-linecap="butt"><path d="M189.94899,309.05004l7.4,-6.8l9.4,-2.3l14.8,-0.6l0.9,9.7z" fill="#f0d8c0"/><path d="M202.64899,300.75005v-50.1l0.7,-62.3h30l-6.4,62l-3.7,50.4z" fill="#e2964a"/></g><g data-paper-data="{&quot;origPos&quot;:null,&quot;index&quot;:null}" stroke="none" stroke-width="1" stroke-linecap="butt"><path d="M227.84899,309.05004l7.4,-6.8l9.4,-2.3l14.8,-0.6l0.9,9.7z" fill="#f0d8c0"/><path d="M239.84899,300.75005l-4.7,-50.6l-6.6,-61.8h29.1l0.7,60.1l0.5,52.3z" fill="#e2964a"/></g><g data-paper-data="{&quot;origPos&quot;:null,&quot;index&quot;:null}" stroke="none" stroke-width="1" stroke-linecap="butt"><path d="M191.84899,163.72781c0,0 2.3,-50 14.9,-46.6c7,1.7 -1.1,48.6 -1.1,48.6c0,0 -5.4,1.7 -8.6,1.3c-3.1,-0.4 -5.2,-3.3 -5.2,-3.3z" fill="#633b15"/><path d="M187.34899,142.62784c0,0 10.75,-30 20.85,-28c11.5,2.2 3.25,34.1 3.25,34.1z" data-paper-data="{&quot;origPos&quot;:null}" fill="#62a7a7"/></g><g data-paper-data="{&quot;origPos&quot;:null,&quot;index&quot;:null}" fill="#633b15" stroke="none" stroke-width="1" stroke-linecap="butt"><g data-paper-data="{&quot;origPos&quot;:null}"><path d="M192.04899,163.22786c0,0 4.6,-0.8 7.3,-1c3.6,-0.3 6.7,3.9 6.7,3.9l-8.8,27.1l-8.2,-2.4z" data-paper-data="{&quot;origPos&quot;:null}"/></g><path d="M192.53325,213.40075c-1.82405,-0.0537 -4.12649,-2.85169 -4.12649,-2.85169c0,0 -3.09452,-5.50217 -3.00789,-9.56204c0.14464,-4.3542 4.53963,-10.6227 4.53963,-10.6227l7.27682,0.31292c0,0 5.66479,5.90678 4.60277,11.81289c-0.42395,2.66838 -2.95909,7.77456 -2.95909,7.77456c0,0 -2.74142,1.4982 -3.27353,0.57795c-0.434,-0.90091 1.17803,-6.49478 -0.17478,-6.35369c-1.7646,0.16186 -0.99397,9.18106 -2.87745,8.9118z" data-paper-data="{&quot;origPos&quot;:null,&quot;index&quot;:null,&quot;origRot&quot;:0}"/></g><path d="M231.34899,198.35006c-11.6,0.1 -28.7,-2.7 -28.7,-2.7c0,0 0.76666,-80.08889 3.06666,-81.28889c2.4,-1.3 13.33334,-5.51111 26.33334,-5.31111c13,0.2 28.2,8.1 28.2,8.1l-0.2,76.3c0,0 -16.9,4.7 -28.7,4.9z" data-paper-data="{&quot;origPos&quot;:null,&quot;index&quot;:null}" fill="#84bbbb" stroke="none" stroke-width="1" stroke-linecap="butt"/><g data-paper-data="{&quot;origPos&quot;:null,&quot;index&quot;:null}" stroke="none" stroke-width="1" stroke-linecap="butt"><path d="M264.04899,168.55015c0,0 -18.4,-51.6 -7.2,-51.3c14.3,-0.3 19.9,50.3 19.9,50.3c0,0 -3.8,2 -6.3,2.2c-2.5,0.2 -6.4,-1.2 -6.4,-1.2z" fill="#633b15"/><path d="M254.24899,152.55008c0,0 -12.7,-35.1 3.9,-36.9c7,-0.8 18.4,28.2 18.4,28.2z" data-paper-data="{&quot;origPos&quot;:null}" fill="#62a7a7"/></g><g data-paper-data="{&quot;origPos&quot;:null,&quot;index&quot;:null}" fill="#633b15" stroke="none" stroke-width="1" stroke-linecap="butt"><path d="M267.04899,196.1501l-3.2,-27.7c0,0 3.5,-3.9 6.7,-3.3c2.3,0.4 6.3,1.6 6.3,1.6l-2.1,27.7z"/><path d="M267.64899,215.5501c-1.9,-0.1 0.6,-8.8 -1.1,-9.3c-1.3,-0.4 -0.7,5.4 -1.4,6.2c-0.7,0.8 -3.1,-1.2 -3.1,-1.2c0,0 -1.5,-5.5 -1.4,-8.2c0.1,-6 6.8,-10.7 6.8,-10.7l7.2,1.1c0,0 3.1,7 2.4,11.3c-0.7,4 -4.8,8.8 -4.8,8.8c0,0 -2.8,2.3 -4.6,2z"/></g><g data-paper-data="{&quot;index&quot;:null}" fill="#633b15" stroke="none" stroke-width="1" stroke-linecap="butt"><path d="M240.44899,111.05003c0,0 3.5,1.2 2,4.6c-3.9,6.9 -22.7,4.5 -22.8,0c-0.1,-2.8 4.8,-3.7 4.8,-3.7l-0.1,-9.1l15.2,-3.4z" data-paper-data="{&quot;origPos&quot;:null}"/><path d="M248.14899,84.95001c1.3,0.4 1.8,2.7 1,5.1c-0.8,2.4 -2.6,3.9 -4,3.4c-1.3,-0.4 -1.8,-2.7 -1,-5.1c0.8,-2.3 2.6,-3.9 4,-3.4z" data-paper-data="{&quot;origPos&quot;:null}"/><path d="M212.68649,85.85002c-2,-13.7 5.4625,-25.8 16.8625,-25.2c15,0.7 17.2,10.3 17.2,23.1c0,12.8 -7.6,22.5 -19.4,22.3c-6.8,-0.3 -14.7,-7.1 -14.7,-19.9z" data-paper-data="{&quot;origPos&quot;:null}"/></g><path d="M227.44899,98.35009c1.8,0 4,-0.7 4,0c0,0.8 -1.7,2.7 -3.5,2.7c-1.7,0 -3.7,-1.5 -3.7,-2.2c0,-0.7 1.5,-0.4 3.2,-0.5z" data-paper-data="{&quot;origPos&quot;:null,&quot;index&quot;:null}" fill="#000000" stroke="none" stroke-width="1" stroke-linecap="butt"/><path d="M229.24899,91.6501c0,0 -0.8,0.8 -2.2,0.8c-1.9,0 -2.2,-1 -2.2,-1" data-paper-data="{&quot;origPos&quot;:null,&quot;index&quot;:null}" fill="none" stroke="#000000" stroke-width="1.2775" stroke-linecap="round"/><g data-paper-data="{&quot;origPos&quot;:null,&quot;index&quot;:null}"><path d="M230.24899,79.65005c0,0 2,-0.9 3.7,-0.8c1.5,0 4.4,0.8 4.4,0.8" fill="none" stroke="#241909" stroke-width="1.46" stroke-linecap="round"/><g><path d="M231.04899,83.75009c0,0 0.4,-1.3 2.9,-1.5c2.3,-0.2 4.5,1.7 4.5,1.7" fill="none" stroke="#000000" stroke-width="1.46" stroke-linecap="round"/><path d="M233.04899,86.95008c-1.2,0 -2.1,-1 -2.1,-2.2c0,-1.2 0.9,-2.2 2.1,-2.2c1.2,0 2.1,1 2.1,2.2c0,1.2 -1,2.2 -2.1,2.2z" fill="#000000" stroke="none" stroke-width="1" stroke-linecap="butt"/></g></g><g data-paper-data="{&quot;origPos&quot;:null,&quot;index&quot;:null}"><path d="M215.74899,79.2501c0,0 1.7,-0.4 3.2,-0.5c1.7,0 4,0.8 4,0.8" fill="none" stroke="#241909" stroke-width="1.46" stroke-linecap="round"/><path d="M215.54899,83.85005c0,0 2.2,-1.9 4.5,-1.7c2.4,0.2 2.9,1.5 2.9,1.5" fill="none" stroke="#000000" stroke-width="1.46" stroke-linecap="round"/><path d="M216.14899,84.4501c0,-1.2 0.9,-2.2 2.1,-2.2c1.2,0 2.1,1 2.1,2.2c0,1.2 -0.9,2.2 -2.1,2.2c-1.1,0 -2.1,-1 -2.1,-2.2z" fill="#000000" stroke="none" stroke-width="1" stroke-linecap="butt"/></g><path d="M212.649,77.35002c0.5,-6.5 5.4,-17.3 16.8,-16.7c21.4,-0.2 17.9,24.7 17.9,24.7l-2.6,0.8c0,0 -0.9,-11.5 -6.6,-14.4c-2.3,-1.1 -14.8,-1.5 -17.3,-1c-8.1,1.6 -8.2,6.5 -8.2,6.6z" data-paper-data="{&quot;origPos&quot;:null,&quot;index&quot;:null}" fill="#221509" stroke="none" stroke-width="1" stroke-linecap="butt"/><g data-paper-data="{&quot;origPos&quot;:null,&quot;index&quot;:null}" stroke="none" stroke-width="1" stroke-linecap="butt"><path d="M248.44899,86.5501c-2.5,0 -4.5,-2 -4.5,-4.5c0,-2.5 2,-4.5 4.5,-4.5c2.5,0 4.5,2 4.5,4.5c0,2.5 -2,4.5 -4.5,4.5z" data-paper-data="{&quot;origPos&quot;:null}" fill="#161006"/><path d="M212.64899,76.35007c-2.8,0 -5.1,-2.3 -5.1,-5.1c0,-2.8 2.3,-5.1 5.1,-5.1c2.8,0 5.1,2.3 5.1,5.1c0,2.8 -2.3,5.1 -5.1,5.1z" data-paper-data="{&quot;origPos&quot;:null}" fill="#241909"/><path d="M217.74899,73.55005c-4.1,0 -7.4,-3.3 -7.4,-7.4c0,-4.1 3.3,-7.4 7.4,-7.4c4.1,0 7.4,3.3 7.4,7.4c0,4.1 -3.3,7.4 -7.4,7.4z" data-paper-data="{&quot;origPos&quot;:null}" fill="#26150a"/><path d="M247.34899,82.75007c-3.3,0 -6,-2.7 -6,-6c0,-3.3 2.7,-6 6,-6c3.3,0 6,2.7 6,6c0,3.3 -2.7,6 -6,6z" data-paper-data="{&quot;origPos&quot;:null}" fill="#1d1407"/><path d="M241.74899,75.65007c-4.1,0 -7.4,-3.3 -7.4,-7.4c0,-4.1 3.3,-7.4 7.4,-7.4c4.1,0 7.4,3.3 7.4,7.4c0,4.1 -3.3,7.4 -7.4,7.4z" data-paper-data="{&quot;origPos&quot;:null}" fill="#100904"/><path d="M229.84899,73.05009c-5.1,0 -9.2,-4.1 -9.2,-9.2c0,-5.1 4.1,-9.2 9.2,-9.2c5.1,0 9.2,4.1 9.2,9.2c0,5.1 -4.1,9.2 -9.2,9.2z" data-paper-data="{&quot;origPos&quot;:null}" fill="#181106"/></g></g></g></svg>