<svg version="1.1" xmlns="http://www.w3.org/2000/svg" xmlns:xlink="http://www.w3.org/1999/xlink" width="99.9" height="253.90001" viewBox="0,0,99.9,253.90001"><g transform="translate(-184,-55.15)"><g data-paper-data="{&quot;isPaintingLayer&quot;:true}" fill-rule="nonzero" stroke-linejoin="miter" stroke-miterlimit="10" stroke-dasharray="" stroke-dashoffset="0" style="mix-blend-mode: normal"><path d="M256.8,75.15c-5.5,0 -10,-4.5 -10,-10c0,-5.5 4.5,-10 10,-10c5.5,0 10,4.5 10,10c0,5.6 -4.5,10.1 -10,10z" data-paper-data="{&quot;origPos&quot;:null,&quot;index&quot;:null}" fill="#593a1d" stroke="none" stroke-width="1" stroke-linecap="butt"/><g data-paper-data="{&quot;index&quot;:null}" stroke="none" stroke-width="1" stroke-linecap="butt"><path d="M197,309.05002l6.9,-6.8l8.7,-2.3l13.7,-0.6l0.8,9.7z" data-paper-data="{&quot;origPos&quot;:null}" fill="#f0f0f0"/><path d="M206,300.75005l-1.3,-50.1l-1.2,-62.3h36l-7.6,62l-4.4,50.4z" data-paper-data="{&quot;origPos&quot;:null}" fill="#9ac8e6"/></g><g data-paper-data="{&quot;index&quot;:null}" stroke="none" stroke-width="1" stroke-linecap="butt"><path d="M238.2,309.05002l6.9,-6.8l8.7,-2.3l13.7,-0.6l0.8,9.7z" data-paper-data="{&quot;origPos&quot;:null}" fill="#f0f0f0"/><path d="M247.7,300.75005l-6.7,-50.6l-9.3,-61.8h34.8l0.4,60.1l0.6,52.3z" data-paper-data="{&quot;origPos&quot;:null}" fill="#9ac8e6"/></g><g data-paper-data="{&quot;origPos&quot;:null,&quot;index&quot;:null}" stroke="none" stroke-width="1" stroke-linecap="butt"><path d="M192.3,163.75005c0,0 3.6,-50 17.2,-45.3c7.5,2.4 -2.3,48.7 -2.3,48.7c0,0 -5.9,1.2 -9.3,0.4c-3.5,-0.7 -5.6,-3.8 -5.6,-3.8z" fill="#edbb8c"/><path d="M192.5,145.85005c0,0 8.5,-33.8 19.5,-30.7c12.5,3.5 2.1,39.4 2.1,39.4z" fill="#000000"/></g><g data-paper-data="{&quot;origPos&quot;:null,&quot;index&quot;:null}" fill="#edbb8c" stroke="none" stroke-width="1" stroke-linecap="butt"><path d="M192,163.25012c0,0 5,-0.3 7.9,-0.2c3.9,0.1 7.2,4.7 7.2,4.7l-10.2,26.3l-8.8,-3.3z"/><path d="M187.1,210.55011c0,0 -3.1,-5 -3.1,-8.8c0,-4.2 4.2,-10.7 4.2,-10.7l7,-0.4c0,0 5.6,5 4.7,10.9c-0.4,2.7 -2.7,7.8 -2.7,7.8c0,0 -2.6,1.7 -3.1,0.9c-0.5,-0.8 1,-6.4 -0.3,-6.1c-1.8,0.4 -0.8,8.9 -2.6,8.9c-1.9,0 -4.1,-2.5 -4.1,-2.5z" data-paper-data="{&quot;origPos&quot;:null}"/></g><path d="M235.2,198.45012c-13.8,0.1 -33.7,-2.7 -33.7,-2.7c0,0 4.1,-79.9 6.8,-81.1c2.9,-1.2 12.3,-5.6 27.7,-5.4c15.4,0.2 31.8,8.8 31.8,8.8l0.9,75.6c0,0 -19.5,4.7 -33.5,4.8z" data-paper-data="{&quot;origPos&quot;:null,&quot;index&quot;:null}" fill="#242424" stroke="none" stroke-width="1" stroke-linecap="butt"/><g data-paper-data="{&quot;origPos&quot;:null,&quot;index&quot;:null}" stroke="none" stroke-width="1" stroke-linecap="butt"><path d="M268.6,169.45012c0,0 -20.9,-51.2 -7.5,-51.3c17,-0.8 22.6,49.9 22.6,49.9c0,0 -4.7,2.1 -7.6,2.4c-2.9,0.3 -7.5,-1 -7.5,-1z" fill="#edbb8c"/><path d="M260,153.45002c0,0 -17.1,-34.7 2.7,-37.1c8.3,-1 19.5,27.5 19.5,27.5z" fill="#000000"/></g><path d="M238.6,55.15006c12.8,0 23.2,11.1 23.2,24.8c0,13.7 -10.4,24.8 -23.2,24.8c-12.8,0 -23.2,-11.1 -23.2,-24.8c0,-13.7 10.3,-24.8 23.2,-24.8z" data-paper-data="{&quot;origPos&quot;:null,&quot;index&quot;:null}" fill="#593a1d" stroke="none" stroke-width="1" stroke-linecap="butt"/><g data-paper-data="{&quot;origPos&quot;:null,&quot;index&quot;:null}" fill="#edbb8c" stroke="none" stroke-width="1" stroke-linecap="butt"><path d="M253.5,84.95002c1.3,0.4 1.8,2.7 1,5.1c-0.8,2.4 -2.6,3.9 -4,3.4c-1.3,-0.4 -1.8,-2.7 -1,-5.1c0.8,-2.3 2.6,-3.9 4,-3.4z" data-paper-data="{&quot;origPos&quot;:null}"/><path d="M245.8,111.05004c0,0 3.5,1.2 2,4.6c-3.9,6.9 -22.7,4.5 -22.8,0c-0.1,-2.8 4.8,-3.7 4.8,-3.7l-0.1,-9.1l15.2,-3.4z" data-paper-data="{&quot;origPos&quot;:null}"/><path d="M218.00176,85.85005c-2,-13.7 5.49824,-25.8 16.89824,-25.2c15,0.7 17.2,10.3 17.2,23.1c0,12.8 -7.6,22.5 -19.4,22.3c-6.8,-0.3 -14.7,-7.1 -14.7,-19.9z" data-paper-data="{&quot;origPos&quot;:null}"/></g><path d="M232.8,98.35011c1.8,0 4,-0.7 4,0c0,0.8 -1.8,2.7 -3.5,2.7c-1.7,0 -3.7,-1.5 -3.7,-2.2c0,-0.7 1.4,-0.5 3.2,-0.5z" data-paper-data="{&quot;origPos&quot;:null,&quot;index&quot;:null}" fill="#000000" stroke="none" stroke-width="1" stroke-linecap="butt"/><g data-paper-data="{&quot;origPos&quot;:null,&quot;index&quot;:null}"><path d="M221.1,79.25008c0,0 1.7,-0.4 3.2,-0.5c1.7,0 4,0.8 4,0.8" fill="none" stroke="#000000" stroke-width="1.46" stroke-linecap="round"/><g><path d="M220.9,82.85001c0,0 2.2,-0.9 4.5,-0.7c2.4,0.2 2.9,1.5 2.9,1.5" fill="none" stroke="#000000" stroke-width="1.46" stroke-linecap="round"/><path d="M221.3,84.4501c0,-1.2 0.9,-2.2 2.1,-2.2c1.2,0 2.1,1 2.1,2.2c0,1.2 -0.9,2.2 -2.1,2.2c-1.2,0 -2.1,-1 -2.1,-2.2z" fill="#000000" stroke="none" stroke-width="1" stroke-linecap="butt"/></g></g><g data-paper-data="{&quot;origPos&quot;:null,&quot;index&quot;:null}"><path d="M235.6,79.65c0,0 2,-0.9 3.7,-0.8c1.5,0 4.4,0.8 4.4,0.8" fill="none" stroke="#000000" stroke-width="1.46" stroke-linecap="round"/><g><path d="M236.4,83.75013c0,0 0.4,-1.3 2.9,-1.5c2.3,-0.2 4.5,1.7 4.5,1.7" fill="none" stroke="#000000" stroke-width="1.46" stroke-linecap="round"/><path d="M238.4,86.95013c-1.2,0 -2.1,-1 -2.1,-2.2c0,-1.2 0.9,-2.2 2.1,-2.2c1.2,0 2.1,1 2.1,2.2c0,1.2 -1,2.2 -2.1,2.2z" fill="#000000" stroke="none" stroke-width="1" stroke-linecap="butt"/></g></g><g data-paper-data="{&quot;origPos&quot;:null,&quot;index&quot;:null}" fill="#edbb8c" stroke="none" stroke-width="1" stroke-linecap="butt"><path d="M271.5,197.05011l-3.2,-27.7c0,0 4.3,-4.1 8.1,-3.6c2.8,0.4 7.5,1.4 7.5,1.4l-3.1,27.9z"/><path d="M272.7,215.65011c-1.9,-0.1 0.7,-8.5 -1.1,-9c-1.3,-0.4 -0.7,5.3 -1.4,6c-0.7,0.7 -3.2,-1.2 -3.2,-1.2c0,0 -1.5,-5.4 -1.4,-8c0.1,-5.9 7,-10.4 7,-10.4l7.4,1c0,0 3.3,6.9 2.5,11c-0.7,3.9 -4.9,8.5 -4.9,8.5c0,0 -2.9,2.3 -4.9,2.1z"/></g><path d="M232.6,93.25009c0,0 -3.5,-1.6 -3.5,-2.3c-0.77434,-1.3551 0.80756,-3.45396 1.39584,-4.18492c0.4645,-0.57715 1.80416,-1.01508 1.80416,-1.01508" data-paper-data="{&quot;origPos&quot;:null,&quot;index&quot;:null}" fill="none" stroke="#000000" stroke-width="1.46" stroke-linecap="round"/><g data-paper-data="{&quot;origPos&quot;:null,&quot;index&quot;:null}" fill="#593a1d" stroke="none" stroke-width="1" stroke-linecap="butt"><path d="M255.35049,85.6487c-0.38404,0.91491 -2.35049,-1.12081 -2.35049,-1.12081c-2.1,2.8 -1.3,20.22222 -4.3,18.42222c-3.2,-1.8 -1.1,-19.3 -4.1,-21.5c-5.3,-4 -14.2,-17.6 -11.1,-21.8c3.1,-4.2 13.8,-1 19.2,3c5.3,4.1 6.6915,19.25386 2.65049,22.99859z" data-paper-data="{&quot;origPos&quot;:null}"/><path d="M217.7,63.75013c5.3,-4 12.1,-8.6 15.2,-4.4c3.1,4.2 -6,6.2 -9.9,12c-3.7,5.6 -2.6,33.8 -5.7,29.6c-3.1,-4.2 -4.9,-33.2 0.4,-37.2z" data-paper-data="{&quot;origPos&quot;:null}"/></g></g></g></svg>