<svg version="1.1" xmlns="http://www.w3.org/2000/svg" xmlns:xlink="http://www.w3.org/1999/xlink" width="84.06474" height="215.82546" viewBox="0,0,84.06474,215.82546"><g transform="translate(-197.96763,-72.08727)"><g data-paper-data="{&quot;isPaintingLayer&quot;:true}" fill-rule="nonzero" stroke-linejoin="miter" stroke-miterlimit="10" stroke-dasharray="" stroke-dashoffset="0" style="mix-blend-mode: normal"><path d="M228.76612,105.98285c0.75734,0 1.34638,1.43053 1.34638,3.19766c0,1.76713 -0.58904,3.19766 -1.34638,3.19766c-0.75734,0 -1.34638,-1.43053 -1.34638,-3.19766c0,-1.76713 0.67319,-3.19766 1.34638,-3.19766z" data-paper-data="{&quot;index&quot;:null}" fill="none" stroke="#e6b55b" stroke-width="1.46" stroke-linecap="butt"/><path d="M268.4844,110.10614c0.58904,2.94521 -1.51468,1.51468 -1.59883,3.4501c0,1.34638 1.09394,1.85128 -0.1683,4.20744c-0.75734,1.26223 -2.10372,0.67319 -3.11351,1.68298c-0.58904,0.67319 1.34638,1.76713 0.84149,2.52447c-1.59883,2.69276 -3.7867,1.00979 -3.7867,1.00979c-1.26223,0.42074 -0.67319,1.76713 -1.93542,1.76713c-2.27202,-0.08415 -1.51468,-0.3366 -2.69276,-1.26223c0.25245,-0.42074 -1.00979,0.84149 -2.44032,0.58904c-3.28181,-0.75734 -1.85128,-1.93542 -2.18787,-2.27202c-0.84149,-0.1683 -1.09394,0.92564 -1.93542,0.58904c-2.52447,-0.42074 -1.00979,-2.18787 -2.01957,-2.27202c-0.92564,-0.08415 -1.00979,1.09394 -1.93542,1.17808c-1.26223,0.08415 -1.59883,-2.18787 -1.51468,-2.44032c0.3366,-1.17808 -0.92564,0.25245 -2.18787,0.3366c-1.93542,0.08415 -0.92564,-1.17808 -1.59883,-2.69276c-0.42074,-0.92564 -1.76713,-1.68298 -2.01957,-2.69276c-0.25245,-1.00979 1.34638,-2.94521 1.34638,-2.94521c0,0 -1.09394,-1.26223 -0.58904,-2.18787c0.50489,-0.92564 1.51468,-0.42074 2.10372,-1.34638c0.67319,-1.00979 -0.42074,-1.85128 0.58904,-2.44032c1.00979,-0.50489 2.94521,-0.42074 2.94521,-0.42074c0,0 -1.09394,-1.00979 0.1683,-1.93542c1.93542,-1.34638 2.69276,-0.58904 2.69276,-0.58904c0,0 -0.42074,-0.84149 0.92564,-1.51468c0.92564,-0.50489 3.11351,0.42074 2.94521,-0.50489c-0.08415,-0.58904 0.58904,-1.51468 1.34638,-1.76713c0.84149,-0.3366 1.26223,1.34638 2.10372,1.59883c0.67319,0.25245 1.17808,-0.58904 1.85128,-0.75734c2.52447,-0.58904 1.59883,2.10372 1.59883,2.10372c0,0 1.85128,-1.17808 3.7867,-0.67319c2.52447,0.67319 0.92564,3.02936 0.92564,3.02936c0,0 2.10372,-0.58904 3.53425,0.84149c1.51468,1.51468 -0.1683,2.77691 0.25245,3.4501c0.42074,0.67319 1.59883,0.3366 1.76713,2.35617z" data-paper-data="{&quot;index&quot;:null}" fill="#a7a7a7" stroke="none" stroke-width="1" stroke-linecap="butt"/><path d="M224.89528,92.60313c-0.08415,-0.84149 -0.84149,-0.67319 -0.58904,-1.68298c0.1683,-1.00979 1.34638,-2.35617 1.34638,-2.35617c0.08415,-1.00979 -1.43053,-0.58904 -1.09394,-1.68298c0.3366,-1.09394 2.18787,-1.93542 2.18787,-1.93542c0.25245,-1.43053 -0.75734,-1.76713 -0.25245,-2.77691c0.50489,-1.00979 1.85128,-1.00979 2.35617,-1.59883c0.58904,-0.75734 -0.1683,-1.26223 0.25245,-2.18787c0.75734,-1.68298 4.20744,-1.00979 4.54404,-2.10372c0.42074,-1.51468 1.76713,-1.59883 2.94521,-2.77691c2.44032,-2.52447 3.70255,-1.17808 5.30138,0.25245c1.76713,1.51468 1.43053,-1.09394 3.7867,-0.67319c1.34638,0.25245 2.94521,1.59883 2.94521,1.59883c1.00979,0 1.17808,-1.26223 2.27202,-1.26223c1.09394,0 1.59883,1.00979 2.52447,1.51468c0.50489,0.25245 0.75734,-0.25245 1.26223,-0.08415c2.86106,0.84149 0.50489,2.18787 2.27202,2.77691c1.76713,0.58904 2.10372,-0.42074 3.4501,0.92564c1.09394,1.00979 0.1683,2.44032 1.09394,3.6184c0.67319,0.84149 2.10372,2.01957 2.52447,3.02936c0.25245,0.58904 -2.10372,2.52447 -1.85128,3.11351c0.58904,1.43053 2.18787,1.68298 2.27202,3.19766c0.08415,1.26223 -1.51468,3.36596 -1.51468,4.54404c0,1.34638 0.50489,2.94521 0.1683,4.29159c-0.42074,1.93542 -1.59883,1.76713 -2.86106,3.28181c-1.00979,1.17808 -0.1683,2.35617 -1.17808,3.53425c-1.43053,1.59883 -2.35617,-0.58904 -2.69276,1.51468c-0.25245,1.68298 0,1.76713 -1.17808,2.94521c-0.84149,0.92564 -1.59883,-0.25245 -2.60862,0.42074c-2.10372,1.43053 0.50489,2.44032 -3.4501,2.60862c-1.93542,0 -2.52447,-1.68298 -2.52447,-1.68298c0,0 0.42074,1.93542 -2.10372,1.85128c-4.54404,-0.1683 -1.68298,-1.85128 -3.53425,-2.52447c-0.84149,-0.3366 -0.67319,1.68298 -3.19766,1.26223c-1.51468,-0.25245 -1.26223,-2.60862 -1.68298,-2.44032c-1.00979,0.3366 -0.3366,1.59883 -2.60862,1.34638c-1.43053,-0.08415 -1.26223,-2.18787 -1.51468,-2.44032c-0.75734,-0.75734 -1.68298,0.42074 -2.52447,-0.25245c-0.92564,-0.75734 -0.50489,-1.93542 -0.1683,-3.02936c0.25245,-0.75734 -2.01957,0 -2.69276,-0.50489c-0.75734,-0.50489 -0.08415,-2.10372 -0.08415,-2.10372c0,0 -0.92564,-1.17808 -1.17808,-1.76713c-0.50489,-1.51468 0.25245,-2.01957 0,-3.6184c-0.3366,-1.68298 -1.26223,-2.69276 -1.34638,-3.7867c0,-1.00979 1.00979,-1.68298 0.92564,-2.35617z" data-paper-data="{&quot;index&quot;:null}" fill="#a7a7a7" stroke="none" stroke-width="1" stroke-linecap="butt"/><g data-paper-data="{&quot;index&quot;:null}" stroke="none" stroke-width="1" stroke-linecap="butt"><path d="M204.95199,165.05536c0,0 3.02936,-42.07444 14.47361,-38.11944c6.31117,2.01957 -1.93542,40.98051 -1.93542,40.98051c0,0 -4.96478,1.00979 -7.82585,0.3366c-2.94521,-0.58904 -4.71234,-3.19766 -4.71234,-3.19766z" fill="#a2723c"/><path d="M206.63497,141.57781c0,0 6.90021,-19.27009 16.15659,-16.66148c10.43446,2.94521 0.1683,22.21531 0.1683,22.21531z" fill="#f29f1f"/></g><path d="M239.03229,287.66023l6.05872,-6.47946l7.65755,-2.18787l12.03329,-0.58904l0.67319,9.25638z" data-paper-data="{&quot;index&quot;:null}" fill="#5a3820" stroke="none" stroke-width="1" stroke-linecap="butt"/><path d="M233.81506,287.82858h-25.83371l5.89042,-6.31117l7.48925,-2.10372l11.78084,-0.58904l0.67319,9.08808z" data-paper-data="{&quot;index&quot;:null}" fill="#5a3820" stroke="none" stroke-width="1" stroke-linecap="butt"/><g data-paper-data="{&quot;index&quot;:null}" fill="#a2723c" stroke="none" stroke-width="1" stroke-linecap="butt"><path d="M204.69954,164.63462c0,0 4.20744,-0.25245 6.64776,-0.1683c3.28181,0.08415 6.05872,3.955 6.05872,3.955l-8.58319,22.13116l-7.4051,-2.77691z" data-paper-data="{&quot;origPos&quot;:null}"/><path d="M200.57625,204.31683c0,0 -2.60862,-4.20744 -2.60862,-7.4051c0,-3.53425 3.53425,-9.00393 3.53425,-9.00393l5.89042,-0.3366c0,0 4.71234,4.20744 3.955,9.17223c-0.3366,2.27202 -2.27202,6.56361 -2.27202,6.56361c0,0 -2.18787,1.43053 -2.60862,0.75734c-0.42074,-0.67319 0.84149,-5.38553 -0.25245,-5.13308c-1.51468,0.3366 -0.67319,7.48925 -2.18787,7.48925c-1.59883,0 -3.4501,-2.10372 -3.4501,-2.10372z" data-paper-data="{&quot;origPos&quot;:null}"/></g><path d="M206.13007,279.16121l2.60862,-45.01965l7.2368,-47.54412l51.66742,-1.43053l4.54404,50.57348l5.38553,45.2721z" data-paper-data="{&quot;index&quot;:null}" fill="#f2c11f" stroke="none" stroke-width="1" stroke-linecap="butt"/><path d="M242.31409,195.51726c-11.3601,0.08415 -26.42275,-3.7867 -26.42275,-3.7867l1.59883,-66.14102c0,0 12.70648,-6.56361 25.49711,-6.39532c12.70648,0.1683 24.65562,6.98436 24.65562,6.98436l-0.08415,65.13124c0,0 -13.63212,4.1233 -25.24467,4.20744z" data-paper-data="{&quot;index&quot;:null}" fill="#f2c11f" stroke="none" stroke-width="1" stroke-linecap="butt"/><g data-paper-data="{&quot;index&quot;:null}" fill="#a2723c" stroke="none" stroke-width="1" stroke-linecap="butt"><path d="M256.45111,98.74601c1.09394,0.3366 1.51468,2.27202 0.84149,4.29159c-0.67319,2.01957 -2.18787,3.28181 -3.36596,2.86106c-1.09394,-0.3366 -1.51468,-2.27202 -0.84149,-4.29159c0.67319,-1.93542 2.18787,-3.28181 3.36596,-2.86106z" data-paper-data="{&quot;origPos&quot;:null}"/><path d="M249.97164,120.70887c0,0 2.94521,1.00979 1.68298,3.87085c-3.28181,5.80627 -19.1018,3.7867 -19.18595,0c-0.08415,-2.35617 4.03915,-3.11351 4.03915,-3.11351l-0.08415,-7.65755l12.79063,-2.86106z" data-paper-data="{&quot;origPos&quot;:null}"/><path d="M226.57973,99.50335c-1.68298,-11.5284 4.62671,-21.71041 14.21968,-21.20552c12.62233,0.58904 14.47361,8.66734 14.47361,19.43839c0,10.77106 -6.39532,18.9335 -16.32488,18.7652c-5.72212,-0.25245 -12.36989,-5.97457 -12.36989,-16.74563z" data-paper-data="{&quot;origPos&quot;:null}"/></g><path d="M242.39824,110.19029c0,0 -2.10372,1.68298 -4.88064,1.00979" data-paper-data="{&quot;index&quot;:null}" fill="none" stroke="#000000" stroke-width="1.46" stroke-linecap="round"/><path d="M240.54697,105.14136c0,0 -1.00979,0.42074 -2.10372,0.42074c-0.92564,0 -1.93542,-0.58904 -1.93542,-0.58904" data-paper-data="{&quot;index&quot;:null}" fill="none" stroke="#000000" stroke-width="1.46" stroke-linecap="round"/><g data-paper-data="{&quot;index&quot;:null}"><path d="M229.18687,93.94953c0,0 1.43053,-0.3366 2.69276,-0.42074c1.43053,0 3.36596,0.67319 3.36596,0.67319" fill="none" stroke="#000000" stroke-width="1.46" stroke-linecap="round"/><g><path d="M229.01857,96.97887c0,0 1.85128,-0.75734 3.7867,-0.58904c2.01957,0.1683 2.44032,1.26223 2.44032,1.26223" fill="none" stroke="#000000" stroke-width="1.46" stroke-linecap="round"/><path d="M229.35517,98.3253c0,-1.00979 0.75734,-1.85128 1.76713,-1.85128c1.00979,0 1.76713,0.84149 1.76713,1.85128c0,1.00979 -0.75734,1.85128 -1.76713,1.85128c-1.00979,0 -1.76713,-0.84149 -1.76713,-1.85128z" fill="#000000" stroke="none" stroke-width="1" stroke-linecap="butt"/></g></g><g data-paper-data="{&quot;index&quot;:null}"><path d="M241.38846,94.28609c0,0 1.68298,-0.75734 3.11351,-0.67319c1.26223,0 3.70255,0.67319 3.70255,0.67319" fill="none" stroke="#000000" stroke-width="1.46" stroke-linecap="round"/><g><path d="M242.06165,97.73626c0,0 0.3366,-1.09394 2.44032,-1.26223c1.93542,-0.1683 3.7867,1.43053 3.7867,1.43053" fill="none" stroke="#000000" stroke-width="1.46" stroke-linecap="round"/><path d="M243.74463,100.42902c-1.00979,0 -1.76713,-0.84149 -1.76713,-1.85128c0,-1.00979 0.75734,-1.85128 1.76713,-1.85128c1.00979,0 1.76713,0.84149 1.76713,1.85128c0,1.00979 -0.84149,1.85128 -1.76713,1.85128z" fill="#000000" stroke="none" stroke-width="1" stroke-linecap="butt"/></g></g><g data-paper-data="{&quot;index&quot;:null}" stroke="none" stroke-width="1" stroke-linecap="butt"><path d="M269.15759,169.85185c0,0 -17.58712,-43.08423 -6.31117,-43.16838c14.30531,-0.67319 19.01765,41.99029 19.01765,41.99029c0,0 -3.955,1.76713 -6.39532,2.01957c-2.44032,0.25245 -6.31117,-0.84149 -6.31117,-0.84149z" fill="#a2723c"/><path d="M259.64876,149.31951c0,0 -12.11744,-22.13116 4.54404,-24.15073c7.06851,-0.84149 14.13701,14.05286 14.13701,14.05286z" fill="#f29f1f"/></g><g data-paper-data="{&quot;index&quot;:null}" fill="#a2723c" stroke="none" stroke-width="1" stroke-linecap="butt"><path d="M271.59791,193.07694l-2.69276,-23.30924c0,0 3.6184,-3.4501 6.81606,-3.02936c2.35617,0.3366 6.31117,1.17808 6.31117,1.17808l-2.60862,23.47754z"/><path d="M272.60769,208.72864c-1.59883,-0.08415 0.58904,-7.15266 -0.92564,-7.5734c-1.09394,-0.3366 -0.58904,4.37574 -1.17808,5.04893c-0.58904,0.58904 -2.69276,-1.00979 -2.69276,-1.00979c0,0 -1.26223,-4.54404 -1.17808,-6.73191c0.08415,-4.96478 5.89042,-8.75148 5.89042,-8.75148l6.22702,0.84149c0,0 2.77691,5.80627 2.10372,9.25638c-0.58904,3.28181 -4.1233,7.15266 -4.1233,7.15266c0,0 -2.44032,1.93542 -4.1233,1.76713z"/></g><path d="M254.85228,105.98285c0.75734,0 1.34638,1.43053 1.34638,3.19766c0,1.76713 -0.58904,3.19766 -1.34638,3.19766c-0.75734,0 -1.34638,-1.43053 -1.34638,-3.19766c0,-1.76713 0.67319,-3.19766 1.34638,-3.19766z" data-paper-data="{&quot;index&quot;:null}" fill="none" stroke="#e6b55b" stroke-width="1.46" stroke-linecap="butt"/><path d="M253.1693,76.53074c1.59883,1.09394 0.75734,1.51468 1.93542,2.94521c0.50489,0.67319 2.35617,-0.08415 2.86106,0.58904c0.92564,1.26223 -0.42074,2.10372 0.1683,3.53425c0.25245,0.67319 3.11351,1.17808 3.36596,1.76713c0.58904,1.34638 -1.00979,1.76713 -1.00979,3.19766c0,0.75734 1.93542,1.34638 2.01957,2.10372c0.1683,1.34638 -1.85128,1.43053 -2.35617,2.69276c-0.50489,1.26223 2.10372,-0.1683 0.25245,3.7867c-0.75734,1.68298 -2.01957,3.36596 -3.36596,2.01957c-0.50489,-0.50489 -1.76713,0.50489 -2.10372,-0.08415c-0.58904,-1.00979 0.3366,-3.02936 -0.58904,-3.7867c-1.26223,-1.09394 -3.11351,-0.50489 -4.62819,-1.26223c-3.6184,-1.76713 0.3366,-2.94521 -2.27202,-4.37574c-1.59883,-0.92564 -2.18787,0.08415 -3.70255,-1.00979c-2.52447,-1.76713 -0.3366,-2.35617 -1.68298,-3.955c-0.84149,-0.92564 -2.18787,0.67319 -3.28181,0.08415c-1.85128,-0.92564 -0.25245,-2.18787 -1.51468,-3.87085c-0.84149,-1.09394 -3.87085,-1.43053 -3.28181,-2.69276c0.92564,-2.01957 0.67319,-3.70255 2.86106,-4.03915c1.09394,-0.1683 1.51468,0.92564 2.60862,0.92564c0.84149,0 2.18787,-1.17808 3.02936,-1.09394c1.34638,0.1683 1.17808,0.75734 2.35617,1.34638c0.75734,0.3366 2.35617,-1.00979 3.28181,-0.75734c2.10372,0.58904 0,1.51468 1.93542,2.44032c1.93542,0.84149 0.42074,-2.27202 3.11351,-0.50489z" data-paper-data="{&quot;index&quot;:null}" fill="#a7a7a7" stroke="none" stroke-width="1" stroke-linecap="butt"/></g></g></svg>