<svg version="1.1" xmlns="http://www.w3.org/2000/svg" xmlns:xlink="http://www.w3.org/1999/xlink" width="91.75483" height="252.89996" viewBox="0,0,91.75483,252.89996"><g transform="translate(-185.39708,-56.15005)"><g data-paper-data="{&quot;isPaintingLayer&quot;:true}" fill-rule="nonzero" stroke-linejoin="miter" stroke-miterlimit="10" stroke-dasharray="" stroke-dashoffset="0" style="mix-blend-mode: normal"><g data-paper-data="{&quot;origPos&quot;:null,&quot;index&quot;:null}" stroke="none" stroke-width="1" stroke-linecap="butt"><path d="M189.94899,309.05002l7.4,-6.8l9.4,-2.3l14.8,-0.6l0.9,9.7z" fill="#ebebeb"/><path d="M202.64899,300.75005v-50.1l0.7,-62.3h30l-7.9,62l-3.7,50.4z" fill="#a4bdda"/></g><g data-paper-data="{&quot;index&quot;:null}" stroke="none" stroke-width="1" stroke-linecap="butt"><path d="M227.84899,309.05002l7.4,-6.8l9.4,-2.3l14.8,-0.6l0.9,9.7z" fill="#ebebeb"/><path d="M241.24899,300.75005l-4.7,-50.6l-8,-61.8h29.1l0.7,60.1l0.5,52.3z" fill="#a4bdda"/></g><g data-paper-data="{&quot;origPos&quot;:null,&quot;index&quot;:null}" stroke="none" stroke-width="1" stroke-linecap="butt"><path d="M191.84899,164.50556c0,0 2.3,-50 14.9,-46.6c7,1.7 -1.1,48.6 -1.1,48.6c0,0 -5.4,1.7 -8.6,1.3c-3.1,-0.4 -5.2,-3.3 -5.2,-3.3z" fill="#d1a56b"/><path d="M187.34899,143.4056c0,0 11.5,-31 21.6,-29c11.5,2.2 2.5,35.1 2.5,35.1z" fill="#774444"/></g><g data-paper-data="{&quot;origPos&quot;:null,&quot;index&quot;:null}" fill="#d1a56b" stroke="none" stroke-width="1" stroke-linecap="butt"><g data-paper-data="{&quot;origPos&quot;:null}"><path d="M192.04899,164.00566c0,0 4.6,-0.8 7.3,-1c3.6,-0.3 6.7,3.9 6.7,3.9l-8.8,27.1l-8.2,-2.4z" data-paper-data="{&quot;origPos&quot;:null}"/></g><path d="M192.53325,214.17851c-1.82405,-0.0537 -4.12649,-2.85169 -4.12649,-2.85169c0,0 -3.09452,-5.50217 -3.00789,-9.56204c0.14464,-4.3542 4.53963,-10.6227 4.53963,-10.6227l7.27682,0.31292c0,0 5.66479,5.90678 4.60277,11.81289c-0.42395,2.66838 -2.95909,7.77456 -2.95909,7.77456c0,0 -2.74142,1.4982 -3.27353,0.57795c-0.434,-0.90091 1.17803,-6.49478 -0.17478,-6.35369c-1.7646,0.16186 -0.99397,9.18106 -2.87745,8.9118z" data-paper-data="{&quot;origPos&quot;:null,&quot;index&quot;:null,&quot;origRot&quot;:0}"/></g><path d="M231.34897,198.35005c-11.6,0.1 -28.7,-2.7 -28.7,-2.7c0,0 0.76666,-80.08889 3.06666,-81.28889c2.4,-1.3 13.33334,-5.51111 26.33334,-5.31111c13,0.2 28.2,8.1 28.2,8.1l-0.2,76.3c0,0 -16.9,4.7 -28.7,4.9z" data-paper-data="{&quot;origPos&quot;:null,&quot;index&quot;:null}" fill="#925353" stroke="none" stroke-width="1" stroke-linecap="butt"/><g data-paper-data="{&quot;origPos&quot;:null,&quot;index&quot;:null}" stroke="none" stroke-width="1" stroke-linecap="butt"><path d="M264.04899,168.55011c0,0 -18.4,-51.6 -7.2,-51.3c14.3,-0.3 19.9,50.3 19.9,50.3c0,0 -3.8,2 -6.3,2.2c-2.5,0.2 -6.4,-1.2 -6.4,-1.2z" fill="#d1a56b"/><path d="M254.24899,152.55003c0,0 -13.8,-34.4 2.8,-36.2c7,-0.8 19.5,27.5 19.5,27.5z" fill="#774444"/></g><g data-paper-data="{&quot;index&quot;:null}" fill="#d1a56b" stroke="none" stroke-width="1" stroke-linecap="butt"><path d="M267.04899,196.15011l-3.2,-27.7c0,0 3.5,-3.9 6.7,-3.3c2.3,0.4 6.3,1.6 6.3,1.6l-2.1,27.7z"/><path d="M267.64899,215.55011c-1.9,-0.1 0.6,-8.8 -1.1,-9.3c-1.3,-0.4 -0.7,5.4 -1.4,6.2c-0.7,0.8 -3.1,-1.2 -3.1,-1.2c0,0 -1.5,-5.5 -1.4,-8.2c0.1,-6 6.8,-10.7 6.8,-10.7l7.2,1.1c0,0 3.1,7 2.4,11.3c-0.7,4 -4.8,8.8 -4.8,8.8c0,0 -2.8,2.3 -4.6,2z"/></g><path d="M248.18232,80.58344c0.4,-0.3 2.66667,-1.73333 5.76667,-1.73333c3.1,0 7.7,4.7 7.7,13.9c0,9.2 -3,17.7 -5.7,20.4c-2.1,2.2 -7.5,-8.2 -7.5,-17.5c0,-9.3 -1.56667,-14.16667 -0.26667,-15.06667z" data-paper-data="{&quot;origPos&quot;:null,&quot;index&quot;:null}" fill="#1f1307" stroke="none" stroke-width="1" stroke-linecap="butt"/><path d="M233.04899,56.15006c12.4,0 22.5,10.7 22.5,23.8c0,13.1 -10.1,23.8 -22.5,23.8c-12.4,0 -22.5,-10.7 -22.5,-23.8c0,-13.2 10.1,-23.8 22.5,-23.8z" data-paper-data="{&quot;index&quot;:null}" fill="#1f1307" stroke="none" stroke-width="1" stroke-linecap="butt"/><g data-paper-data="{&quot;index&quot;:null}" fill="#cca168" stroke="none" stroke-width="1" stroke-linecap="butt"><path d="M222.34787,99.45003l15.2,3.4l-0.1,9.1c0,0 4.9,0.9 4.8,3.7c-0.1,4.5 -18.9,6.9 -22.8,0c-1.5,-3.4 2,-4.6 2,-4.6z" data-paper-data="{&quot;origPos&quot;:null}"/><path d="M217.74787,88.35003c0.8,2.4 0.3,4.7 -1,5.1c-1.4,0.5 -3.2,-1 -4,-3.4c-0.8,-2.4 -0.3,-4.7 1,-5.1c1.4,-0.5 3.2,1.1 4,3.4z" data-paper-data="{&quot;origPos&quot;:null}"/><path d="M249.24787,86.15003c0,12.8 -7.9,19.6 -14.7,19.9c-11.8,0.2 -19.4,-9.5 -19.4,-22.3c0,-12.8 2.2,-22.4 17.2,-23.1c11.4,-0.6 18.8625,11.5 16.8625,25.2z" data-paper-data="{&quot;origPos&quot;:null}"/></g><path d="M227.44899,98.35012c1.8,0 4,-0.7 4,0c0,0.8 -1.7,2.7 -3.5,2.7c-1.7,0 -3.7,-1.5 -3.7,-2.2c0,-0.7 1.5,-0.4 3.2,-0.5z" data-paper-data="{&quot;index&quot;:null}" fill="#000000" stroke="none" stroke-width="1" stroke-linecap="butt"/><path d="M229.24899,92.55012c0,0 -1.2,0.5 -2.5,0.5c-1.1,0 -2.3,-0.7 -2.3,-0.7" data-paper-data="{&quot;index&quot;:null}" fill="none" stroke="#000000" stroke-width="1.46" stroke-linecap="round"/><g data-paper-data="{&quot;index&quot;:null}"><path d="M230.24899,79.65c0,0 2,-0.9 3.7,-0.8c1.5,0 4.4,0.8 4.4,0.8" fill="none" stroke="#000000" stroke-width="1.46" stroke-linecap="round"/><g><path d="M231.04899,83.75009c0,0 0.4,-1.3 2.9,-1.5c2.3,-0.2 4.5,0.8 4.5,0.8" fill="none" stroke="#000000" stroke-width="1.46" stroke-linecap="round"/><path d="M233.04899,86.95012c-1.2,0 -2.1,-1 -2.1,-2.2c0,-1.2 0.9,-2.2 2.1,-2.2c1.2,0 2.1,1 2.1,2.2c0,1.2 -1,2.2 -2.1,2.2z" fill="#000000" stroke="none" stroke-width="1" stroke-linecap="butt"/></g></g><g data-paper-data="{&quot;index&quot;:null}"><path d="M215.74899,79.25009c0,0 1.7,-0.4 3.2,-0.5c1.7,0 4,0.8 4,0.8" fill="none" stroke="#000000" stroke-width="1.46" stroke-linecap="round"/><g><path d="M215.54899,82.45001c0,0 2.2,-0.5 4.5,-0.3c2.4,0.2 2.9,1.5 2.9,1.5" fill="none" stroke="#000000" stroke-width="1.46" stroke-linecap="round"/><path d="M215.94899,84.45011c0,-1.2 0.9,-2.2 2.1,-2.2c1.2,0 2.1,1 2.1,2.2c0,1.2 -0.9,2.2 -2.1,2.2c-1.2,0 -2.1,-1 -2.1,-2.2z" fill="#000000" stroke="none" stroke-width="1" stroke-linecap="butt"/></g></g><g data-paper-data="{&quot;origPos&quot;:null,&quot;index&quot;:null}" stroke="none" stroke-width="1" stroke-linecap="butt"><path d="M250.34899,84.25012c-3.2,4.2 -7.1,-3.2 -12.5,-7.2c-5.4,-4 -12.8,-13.2 -9.7,-17.4c3.1,-4.2 13.8,-1 19.2,3c5.3,4.1 6,17.5 3,21.6z" fill="#1f1307"/><path d="M212.04899,62.65011c5.4,-4 12.5,-7.5 15.6,-3.3c3.1,4.2 -6,6.2 -9.9,12c-3.7,5.5 -5.2,17 -8.3,12.8c-3.2,-4.2 -2.8,-17.4 2.6,-21.5z" fill="#2c1b0a"/></g></g></g></svg>