<svg version="1.1" xmlns="http://www.w3.org/2000/svg" xmlns:xlink="http://www.w3.org/1999/xlink" width="101.18706" height="253.69986" viewBox="0,0,101.18706,253.69986"><g transform="translate(-180.33765,-55.35017)"><g data-paper-data="{&quot;isPaintingLayer&quot;:true}" fill-rule="nonzero" stroke-linejoin="miter" stroke-miterlimit="10" stroke-dasharray="" stroke-dashoffset="0" style="mix-blend-mode: normal"><path d="M194.76236,309.05003l4,-7.7l8.1,-2.6l12.6,-0.7l0.7,11z" data-paper-data="{&quot;origPos&quot;:null,&quot;index&quot;:null}" fill="#464646" stroke="none" stroke-width="1" stroke-linecap="butt"/><path d="M235.56236,309.05003l4.1,-7.7l8.1,-2.6l12.6,-0.7l0.7,11z" data-paper-data="{&quot;origPos&quot;:null,&quot;index&quot;:null}" fill="#464646" stroke="none" stroke-width="1" stroke-linecap="butt"/><path d="M190.66236,299.25005l4.9,-51.3l7.9,-61.8l56.4,0.7l6.6,59.2l6.1,54.7z" data-paper-data="{&quot;origPos&quot;:null,&quot;index&quot;:null}" fill="#262f46" stroke="none" stroke-width="1" stroke-linecap="butt"/><path d="M190.86236,169.05015c0,0 1.4,-26.9 4.8,-38.3c3.4,-11.4 8,-16.8 12.7,-15c5.5,2.1 2.5,26.4 2.5,26.4l-3,25.6c0,0 -7,2.3 -9.7,2.5c-2.7,0.2 -7.3,-1.2 -7.3,-1.2z" data-paper-data="{&quot;origPos&quot;:null,&quot;index&quot;:null}" fill="#b33939" stroke="none" stroke-width="1" stroke-linecap="butt"/><g data-paper-data="{&quot;origPos&quot;:null,&quot;index&quot;:null}" stroke="none" stroke-width="1" stroke-linecap="butt"><path d="M191.86236,163.75018c0,0 4.6,-0.4 7.3,-0.4c3.6,0 8.8,5.3 8.8,5.3l-9,30.7l-16.6,-3.4z" data-paper-data="{&quot;origPos&quot;:null}" fill="#b33939"/><path d="M182.65975,215.44684c0,0 -2.77265,-5.98351 -2.25852,-9.99545c0.59598,-4.30056 6.13441,-9.90197 6.13441,-9.90197l7.88746,1.50929c0,0 5.56262,6.77475 3.70588,12.58874c-0.83288,2.57028 -4.06521,7.37049 -4.06521,7.37049c0,0 -3.21217,1.06395 -3.64005,0.00711c-0.42788,-1.05684 2.08937,-6.26774 0.56443,-6.38838c-2.03326,-0.16086 -2.12532,8.96008 -4.07672,8.5106c-2.11653,-0.60025 -4.25168,-3.70043 -4.25168,-3.70043z" data-paper-data="{&quot;origPos&quot;:null,&quot;index&quot;:null,&quot;origRot&quot;:0}" fill="#88521f"/></g><path d="M231.66236,198.55012c-12,0.1 -29.8,-2.7 -29.8,-2.7c0,0 0.2,-79.2 2.6,-80.4c2.6,-1.3 14.4,-6.4 27.9,-6.2c13.5,0.2 29.3,8.1 29.3,8.1l0.2,76.3c0,0 -17.9,4.7 -30.2,4.9z" data-paper-data="{&quot;origPos&quot;:null,&quot;index&quot;:null}" fill="#813333" stroke="none" stroke-width="1" stroke-linecap="butt"/><g data-paper-data="{&quot;origPos&quot;:null,&quot;index&quot;:null}" fill="#88521f" stroke="none" stroke-width="1" stroke-linecap="butt"><path d="M239.76236,111.05003c0,0 3.5,1.2 2,4.6c-3.9,6.9 -22.7,4.5 -22.8,0c-0.1,-2.8 4.8,-3.7 4.8,-3.7l-0.1,-9.1l15.2,-3.4z" data-paper-data="{&quot;origPos&quot;:null}"/><path d="M247.46236,84.95003c1.3,0.4 1.8,2.7 1,5.1c-0.8,2.4 -2.6,3.9 -4,3.4c-1.3,-0.4 -1.8,-2.7 -1,-5.1c0.8,-2.3 2.6,-3.9 4,-3.4z" data-paper-data="{&quot;origPos&quot;:null}"/><path d="M211.96412,85.85006c-2,-13.7 5.49824,-25.8 16.89824,-25.2c15,0.7 17.2,10.3 17.2,23.1c0,12.8 -7.6,22.5 -19.4,22.3c-6.8,-0.3 -14.7,-7.1 -14.7,-19.9z" data-paper-data="{&quot;origPos&quot;:null}"/></g><g data-paper-data="{&quot;index&quot;:null}"><path d="M229.56236,79.6501c0,0 2,-0.9 3.7,-0.8c1.5,0 4.4,0.8 4.4,0.8" fill="none" stroke="#000000" stroke-width="1.46" stroke-linecap="round"/><g><path d="M230.36236,83.75014c0,0 0.4,-1.3 2.9,-1.5c2.3,-0.2 4.5,1.7 4.5,1.7" fill="none" stroke="#000000" stroke-width="1.46" stroke-linecap="round"/><path d="M232.36236,86.95017c-1.2,0 -2.1,-1 -2.1,-2.2c0,-1.2 0.9,-2.2 2.1,-2.2c1.2,0 2.1,1 2.1,2.2c0,1.2 -0.9,2.2 -2.1,2.2z" fill="#000000" stroke="none" stroke-width="1" stroke-linecap="butt"/></g></g><g data-paper-data="{&quot;index&quot;:null}"><path d="M215.06236,79.25014c0,0 1.7,-0.4 3.2,-0.5c1.7,0 4,0.8 4,0.8" fill="none" stroke="#000000" stroke-width="1.46" stroke-linecap="round"/><g><path d="M214.86236,83.8501c0,0 2.2,-1.9 4.5,-1.7c2.4,0.2 2.9,1.5 2.9,1.5" fill="none" stroke="#000000" stroke-width="1.46" stroke-linecap="round"/><path d="M215.46236,84.45015c0,-1.2 0.9,-2.2 2.1,-2.2c1.2,0 2.1,1 2.1,2.2c0,1.2 -0.9,2.2 -2.1,2.2c-1.1,0 -2.1,-1 -2.1,-2.2z" fill="#000000" stroke="none" stroke-width="1" stroke-linecap="butt"/></g></g><path d="M262.36236,166.75017l-6.1,-25.1c0,0 -4.6,-19.8 0.6,-22.4c4.4,-2.2 8.3,-1.4 13,9.6c4.7,11 9.4,37.6 9.4,37.6c0,0 -4.3,1.8 -7,1.9c-2.8,0.1 -10,-1.6 -9.9,-1.6z" data-paper-data="{&quot;origPos&quot;:null,&quot;index&quot;:null}" fill="#b33939" stroke="none" stroke-width="1" stroke-linecap="butt"/><path d="M226.76236,98.35017c1.8,0 4,-0.7 4,0c0,0.8 -1.8,2.7 -3.5,2.7c-1.7,0 -3.7,-1.5 -3.7,-2.2c0,-0.7 1.4,-0.5 3.2,-0.5z" data-paper-data="{&quot;index&quot;:null}" fill="#000000" stroke="none" stroke-width="1" stroke-linecap="butt"/><path d="M226.56236,93.25015c0,0 -2.5,-1.4 -2.5,-2.1c-0.1,-1.6 2.2,-3.5 2.2,-3.5" data-paper-data="{&quot;index&quot;:null}" fill="none" stroke="#000000" stroke-width="1.46" stroke-linecap="round"/><g data-paper-data="{&quot;origPos&quot;:null,&quot;index&quot;:null}" stroke="none" stroke-width="1" stroke-linecap="butt"><path d="M281.46046,197.95009l-17.1,0.8l-2.1,-31.6c0,0 6.3,-4.4 9.9,-3.9c2.7,0.3 7.1,1.5 7.1,1.5z" data-paper-data="{&quot;origPos&quot;:null}" fill="#b33939"/><path d="M271.46046,219.35018c-2,-0.1 0.4,-8.9 -1.6,-9.3c-1.5,-0.3 -0.5,5.4 -1.2,6.3c-0.7,0.9 -3.5,-1 -3.5,-1c0,0 -1.8,-5.5 -1.9,-8.2c-0.2,-6.1 7,-11.1 7,-11.1l8,0.7c0,0 3.8,6.9 3.2,11.2c-0.6,4 -4.9,9 -4.9,9c0,0 -2.9,2.4 -5.1,2.4z" data-paper-data="{&quot;origPos&quot;:null}" fill="#88521f"/></g><path d="M212.13883,77.25002c0.5,-6.5 5.22353,-17.3 16.62353,-16.7c21.4,-0.2 17.9,24.7 17.9,24.7l-2.6,0.8c0,0 -0.9,-13.4 -6.6,-16.3c-2.3,-1.1 -14.8,-1.5 -17.3,-1c-8.1,1.6 -8.02353,8.5 -8.02353,8.5z" data-paper-data="{&quot;origPos&quot;:null,&quot;index&quot;:null}" fill="#2c1b0c" stroke="none" stroke-width="1" stroke-linecap="butt"/><g data-paper-data="{&quot;origPos&quot;:null,&quot;index&quot;:null}" fill="#ee9d88" stroke="none" stroke-width="1" stroke-linecap="butt"><path d="M247.46236,131.05009h-14.9v-19.6h14.9v19.5z" data-paper-data="{&quot;origPos&quot;:null}"/><path d="M206.86235,94.75017c0,-19.6 1.4,-27 9.8,-34.2c5.5,-4.7 12.4,-5.2 12.4,-5.2c14.9,0 26.2,11.8 26.2,31.5c0,10.2 4.7,19.9 -1.3,28.2c-5.3,7.3 -16.6,7.4 -25.6,7.4c-2.2,0 -7.7,-1.5 -6.9,-3.6c2.4,-6.3 18.54167,-13.00833 20.84167,-24.00833c2.1,-9.7 -3.80833,-20.425 -12.60833,-25.025c-10.2,-5.3 -18.23333,9.63333 -16.93333,21.03333c0.8,7.2 5.7,11.8 11,14.5c0.9,0.5 0.7,3.1 1.6,3.5c2.8,1.3 12.3,2.9 12.3,2.9c0,0 -3.5,6.3 -8.2,9.1c-7.6,4.5 -16.7,-1.3 -21,-9c-3.2,-5.6 -1.6,-10.6 -1.6,-17.1z" data-paper-data="{&quot;origPos&quot;:null}"/></g></g></g></svg>