<svg version="1.1" xmlns="http://www.w3.org/2000/svg" xmlns:xlink="http://www.w3.org/1999/xlink" width="99.9" height="256.48047" viewBox="0,0,99.9,256.48047"><g transform="translate(-184,-53.26958)"><g data-paper-data="{&quot;isPaintingLayer&quot;:true}" fill-rule="nonzero" stroke-linejoin="miter" stroke-miterlimit="10" stroke-dasharray="" stroke-dashoffset="0" style="mix-blend-mode: normal"><path d="M220.6,93.55006c0.9,0 1.6,1.7 1.6,3.8c0,2.1 -0.7,3.8 -1.6,3.8c-0.9,0 -1.6,-1.7 -1.6,-3.8c0,-2.1 0.8,-3.8 1.6,-3.8z" data-paper-data="{&quot;origPos&quot;:null,&quot;index&quot;:null}" fill="none" stroke="#e6b55b" stroke-width="1.46" stroke-linecap="butt"/><path d="M267.8,98.45006c0.7,3.5 -1.8,1.8 -1.9,4.1c0,1.6 1.3,2.2 -0.2,5c-0.9,1.5 -2.5,0.8 -3.7,2c-0.7,0.8 1.6,2.1 1,3c-1.9,3.2 -4.5,1.2 -4.5,1.2c-1.5,0.5 -0.8,2.1 -2.3,2.1c-2.7,-0.1 -1.8,-0.4 -3.2,-1.5c0.3,-0.5 -1.2,1 -2.9,0.7c-3.9,-0.9 -2.2,-2.3 -2.6,-2.7c-1,-0.2 -1.3,1.1 -2.3,0.7c-3,-0.5 -1.2,-2.6 -2.4,-2.7c-1.1,-0.1 -1.2,1.3 -2.3,1.4c-1.5,0.1 -1.9,-2.6 -1.8,-2.9c0.4,-1.4 -1.1,0.3 -2.6,0.4c-2.3,0.1 -1.1,-1.4 -1.9,-3.2c-0.5,-1.1 -2.1,-2 -2.4,-3.2c-0.3,-1.2 1.6,-3.5 1.6,-3.5c0,0 -1.3,-1.5 -0.7,-2.6c0.6,-1.1 1.8,-0.5 2.5,-1.6c0.8,-1.2 -0.5,-2.2 0.7,-2.9c1.2,-0.6 3.5,-0.5 3.5,-0.5c0,0 -1.3,-1.2 0.2,-2.3c2.3,-1.6 3.2,-0.7 3.2,-0.7c0,0 -0.5,-1 1.1,-1.8c1.1,-0.6 3.7,0.5 3.5,-0.6c-0.1,-0.7 0.7,-1.8 1.6,-2.1c1,-0.4 1.5,1.6 2.5,1.9c0.8,0.3 1.4,-0.7 2.2,-0.9c3,-0.7 1.9,2.5 1.9,2.5c0,0 2.2,-1.4 4.5,-0.8c3,0.8 1.1,3.6 1.1,3.6c0,0 2.5,-0.7 4.2,1c1.8,1.8 -0.2,3.3 0.3,4.1c0.5,0.8 1.9,0.4 2.1,2.8z" data-paper-data="{&quot;origPos&quot;:null,&quot;index&quot;:null}" fill="#a7a7a7" stroke="none" stroke-width="1" stroke-linecap="butt"/><path d="M216,77.65001c-0.1,-1 -1,-0.8 -0.7,-2c0.2,-1.2 1.6,-2.8 1.6,-2.8c0.1,-1.2 -1.7,-0.7 -1.3,-2c0.4,-1.3 2.6,-2.3 2.6,-2.3c0.3,-1.7 -0.9,-2.1 -0.3,-3.3c0.6,-1.2 2.2,-1.2 2.8,-1.9c0.7,-0.9 -0.2,-1.5 0.3,-2.6c0.9,-2 5,-1.2 5.4,-2.5c0.5,-1.8 2.1,-1.9 3.5,-3.3c2.9,-3 4.4,-1.4 6.3,0.3c2.1,1.8 1.7,-1.3 4.5,-0.8c1.6,0.3 3.5,1.9 3.5,1.9c1.2,0 1.4,-1.5 2.7,-1.5c1.3,0 1.9,1.2 3,1.8c0.6,0.3 0.9,-0.3 1.5,-0.1c3.4,1 0.6,2.6 2.7,3.3c2.1,0.7 2.5,-0.5 4.1,1.1c1.3,1.2 0.2,2.9 1.3,4.3c0.8,1 2.5,2.4 3,3.6c0.3,0.7 -2.5,3 -2.2,3.7c0.7,1.7 2.6,2 2.7,3.8c0.1,1.5 -1.8,4 -1.8,5.4c0,1.6 0.6,3.5 0.2,5.1c-0.5,2.3 -1.9,2.1 -3.4,3.9c-1.2,1.4 -0.2,2.8 -1.4,4.2c-1.7,1.9 -2.8,-0.7 -3.2,1.8c-0.3,2 0,2.1 -1.4,3.5c-1,1.1 -1.9,-0.3 -3.1,0.5c-2.5,1.7 0.6,2.9 -4.1,3.1c-2.3,0 -3,-2 -3,-2c0,0 0.5,2.3 -2.5,2.2c-5.4,-0.2 -2,-2.2 -4.2,-3c-1,-0.4 -0.8,2 -3.8,1.5c-1.8,-0.3 -1.5,-3.1 -2,-2.9c-1.2,0.4 -0.4,1.9 -3.1,1.6c-1.7,-0.1 -1.5,-2.6 -1.8,-2.9c-0.9,-0.9 -2,0.5 -3,-0.3c-1.1,-0.9 -0.6,-2.3 -0.2,-3.6c0.3,-0.9 -2.4,0 -3.2,-0.6c-0.9,-0.6 -0.1,-2.5 -0.1,-2.5c0,0 -1.1,-1.4 -1.4,-2.1c-0.6,-1.8 0.3,-2.4 0,-4.3c-0.4,-2 -1.5,-3.2 -1.6,-4.5c0,-1.2 1.2,-2 1.1,-2.8z" data-paper-data="{&quot;origPos&quot;:null,&quot;index&quot;:null}" fill="#a7a7a7" stroke="none" stroke-width="1" stroke-linecap="butt"/><g data-paper-data="{&quot;index&quot;:null}" stroke="none" stroke-width="1" stroke-linecap="butt"><path d="M192.3,163.75005c0,0 3.6,-50 17.2,-45.3c7.5,2.4 -2.3,48.7 -2.3,48.7c0,0 -5.9,1.2 -9.3,0.4c-3.5,-0.7 -5.6,-3.8 -5.6,-3.8z" fill="#a2723c"/><path d="M194.3,135.85004c0,0 8.2,-22.9 19.2,-19.8c12.4,3.5 0.2,26.4 0.2,26.4z" fill="#f29f1f"/></g><path d="M232.8,309.45l7.2,-7.7l9.1,-2.6l14.3,-0.7l0.8,11z" data-paper-data="{&quot;index&quot;:null}" fill="#5a3820" stroke="none" stroke-width="1" stroke-linecap="butt"/><path d="M226.6,309.65005h-30.7l7,-7.5l8.9,-2.5l14,-0.7l0.8,10.8z" data-paper-data="{&quot;index&quot;:null}" fill="#5a3820" stroke="none" stroke-width="1" stroke-linecap="butt"/><g data-paper-data="{&quot;origPos&quot;:null,&quot;index&quot;:null}" fill="#a2723c" stroke="none" stroke-width="1" stroke-linecap="butt"><path d="M192,163.25006c0,0 5,-0.3 7.9,-0.2c3.9,0.1 7.2,4.7 7.2,4.7l-10.2,26.3l-8.8,-3.3z" data-paper-data="{&quot;origPos&quot;:null}"/><path d="M187.1,210.4072c0,0 -3.1,-5 -3.1,-8.8c0,-4.2 4.2,-10.7 4.2,-10.7l7,-0.4c0,0 5.6,5 4.7,10.9c-0.4,2.7 -2.7,7.8 -2.7,7.8c0,0 -2.6,1.7 -3.1,0.9c-0.5,-0.8 1,-6.4 -0.3,-6.1c-1.8,0.4 -0.8,8.9 -2.6,8.9c-1.9,0 -4.1,-2.5 -4.1,-2.5z" data-paper-data="{&quot;origPos&quot;:null}"/></g><path d="M193.7,299.35001l3.1,-53.5l8.6,-56.5l61.4,-1.7l5.4,60.1l6.4,53.8z" data-paper-data="{&quot;index&quot;:null}" fill="#f2c11f" stroke="none" stroke-width="1" stroke-linecap="butt"/><path d="M236.7,199.95006c-13.5,0.1 -31.4,-4.5 -31.4,-4.5l1.9,-78.6c0,0 15.1,-7.8 30.3,-7.6c15.1,0.2 29.3,8.3 29.3,8.3l-0.1,77.4c0,0 -16.2,4.9 -30,5z" data-paper-data="{&quot;index&quot;:null}" fill="#f2c11f" stroke="none" stroke-width="1" stroke-linecap="butt"/><g data-paper-data="{&quot;index&quot;:null}" fill="#a2723c" stroke="none" stroke-width="1" stroke-linecap="butt"><path d="M253.5,84.95002c1.3,0.4 1.8,2.7 1,5.1c-0.8,2.4 -2.6,3.9 -4,3.4c-1.3,-0.4 -1.8,-2.7 -1,-5.1c0.8,-2.3 2.6,-3.9 4,-3.4z" data-paper-data="{&quot;origPos&quot;:null}"/><path d="M245.8,111.05002c0,0 3.5,1.2 2,4.6c-3.9,6.9 -22.7,4.5 -22.8,0c-0.1,-2.8 4.8,-3.7 4.8,-3.7l-0.1,-9.1l15.2,-3.4z" data-paper-data="{&quot;origPos&quot;:null}"/><path d="M218.00176,85.85002c-2,-13.7 5.49824,-25.8 16.89824,-25.2c15,0.7 17.2,10.3 17.2,23.1c0,12.8 -7.6,22.5 -19.4,22.3c-6.8,-0.3 -14.7,-7.1 -14.7,-19.9z" data-paper-data="{&quot;origPos&quot;:null}"/></g><path d="M236.8,98.55006c0,0 -2.5,2 -5.8,1.2" data-paper-data="{&quot;index&quot;:null}" fill="none" stroke="#000000" stroke-width="1.46" stroke-linecap="round"/><path d="M234.6,92.55006c0,0 -1.2,0.5 -2.5,0.5c-1.1,0 -2.3,-0.7 -2.3,-0.7" data-paper-data="{&quot;index&quot;:null}" fill="none" stroke="#000000" stroke-width="1.46" stroke-linecap="round"/><g data-paper-data="{&quot;index&quot;:null}"><path d="M221.1,79.25003c0,0 1.7,-0.4 3.2,-0.5c1.7,0 4,0.8 4,0.8" fill="none" stroke="#000000" stroke-width="1.46" stroke-linecap="round"/><g><path d="M220.9,82.85c0,0 2.2,-0.9 4.5,-0.7c2.4,0.2 2.9,1.5 2.9,1.5" fill="none" stroke="#000000" stroke-width="1.46" stroke-linecap="round"/><path d="M221.3,84.45006c0,-1.2 0.9,-2.2 2.1,-2.2c1.2,0 2.1,1 2.1,2.2c0,1.2 -0.9,2.2 -2.1,2.2c-1.2,0 -2.1,-1 -2.1,-2.2z" fill="#000000" stroke="none" stroke-width="1" stroke-linecap="butt"/></g></g><g data-paper-data="{&quot;index&quot;:null}"><path d="M235.6,79.65c0,0 2,-0.9 3.7,-0.8c1.5,0 4.4,0.8 4.4,0.8" fill="none" stroke="#000000" stroke-width="1.46" stroke-linecap="round"/><g><path d="M236.4,83.75006c0,0 0.4,-1.3 2.9,-1.5c2.3,-0.2 4.5,1.7 4.5,1.7" fill="none" stroke="#000000" stroke-width="1.46" stroke-linecap="round"/><path d="M238.4,86.95006c-1.2,0 -2.1,-1 -2.1,-2.2c0,-1.2 0.9,-2.2 2.1,-2.2c1.2,0 2.1,1 2.1,2.2c0,1.2 -1,2.2 -2.1,2.2z" fill="#000000" stroke="none" stroke-width="1" stroke-linecap="butt"/></g></g><g data-paper-data="{&quot;origPos&quot;:null,&quot;index&quot;:null}" stroke="none" stroke-width="1" stroke-linecap="butt"><path d="M268.6,169.45006c0,0 -20.9,-51.2 -7.5,-51.3c17,-0.8 22.6,49.9 22.6,49.9c0,0 -4.7,2.1 -7.6,2.4c-2.9,0.3 -7.5,-1 -7.5,-1z" fill="#a2723c"/><path d="M257.3,145.05005c0,0 -14.4,-26.3 5.4,-28.7c8.4,-1 16.8,16.7 16.8,16.7z" fill="#f29f1f"/></g><g data-paper-data="{&quot;origPos&quot;:null,&quot;index&quot;:null}" fill="#a2723c" stroke="none" stroke-width="1" stroke-linecap="butt"><path d="M271.5,197.05006l-3.2,-27.7c0,0 4.3,-4.1 8.1,-3.6c2.8,0.4 7.5,1.4 7.5,1.4l-3.1,27.9z"/><path d="M272.7,215.65006c-1.9,-0.1 0.7,-8.5 -1.1,-9c-1.3,-0.4 -0.7,5.2 -1.4,6c-0.7,0.7 -3.2,-1.2 -3.2,-1.2c0,0 -1.5,-5.4 -1.4,-8c0.1,-5.9 7,-10.4 7,-10.4l7.4,1c0,0 3.3,6.9 2.5,11c-0.7,3.9 -4.9,8.5 -4.9,8.5c0,0 -2.9,2.3 -4.9,2.1z"/></g><path d="M251.6,93.55006c0.9,0 1.6,1.7 1.6,3.8c0,2.1 -0.7,3.8 -1.6,3.8c-0.9,0 -1.6,-1.7 -1.6,-3.8c0,-2.1 0.8,-3.8 1.6,-3.8z" data-paper-data="{&quot;origPos&quot;:null,&quot;index&quot;:null}" fill="none" stroke="#e6b55b" stroke-width="1.46" stroke-linecap="butt"/><path d="M249.6,58.55006c1.9,1.3 0.9,1.8 2.3,3.5c0.6,0.8 2.8,-0.1 3.4,0.7c1.1,1.5 -0.5,2.5 0.2,4.2c0.3,0.8 3.7,1.4 4,2.1c0.7,1.6 -1.2,2.1 -1.2,3.8c0,0.9 2.3,1.6 2.4,2.5c0.2,1.6 -2.2,1.7 -2.8,3.2c-0.6,1.5 2.5,-0.2 0.3,4.5c-0.9,2 -2.4,4 -4,2.4c-0.6,-0.6 -2.1,0.6 -2.5,-0.1c-0.7,-1.2 0.4,-3.6 -0.7,-4.5c-1.5,-1.3 -3.7,-0.6 -5.5,-1.5c-4.3,-2.1 0.4,-3.5 -2.7,-5.2c-1.9,-1.1 -2.6,0.1 -4.4,-1.2c-3,-2.1 -0.4,-2.8 -2,-4.7c-1,-1.1 -2.6,0.8 -3.9,0.1c-2.2,-1.1 -0.3,-2.6 -1.8,-4.6c-1,-1.3 -4.6,-1.7 -3.9,-3.2c1.1,-2.4 0.8,-4.4 3.4,-4.8c1.3,-0.2 1.8,1.1 3.1,1.1c1,0 2.6,-1.4 3.6,-1.3c1.6,0.2 1.4,0.9 2.8,1.6c0.9,0.4 2.8,-1.2 3.9,-0.9c2.5,0.7 0,1.8 2.3,2.9c2.3,1 0.5,-2.7 3.7,-0.6z" data-paper-data="{&quot;origPos&quot;:null,&quot;index&quot;:null}" fill="#a7a7a7" stroke="none" stroke-width="1" stroke-linecap="butt"/></g></g></svg>