<svg version="1.1" xmlns="http://www.w3.org/2000/svg" xmlns:xlink="http://www.w3.org/1999/xlink" width="92.15482" height="251.81518" viewBox="0,0,92.15482,251.81518"><g transform="translate(-184.99708,-57.03483)"><g data-paper-data="{&quot;isPaintingLayer&quot;:true}" fill-rule="nonzero" stroke-linejoin="miter" stroke-miterlimit="10" stroke-dasharray="" stroke-dashoffset="0" style="mix-blend-mode: normal"><g data-paper-data="{&quot;origPos&quot;:null,&quot;index&quot;:null}" fill="#0a0602" stroke="none" stroke-width="1" stroke-linecap="butt"><path d="M232.34898,106.05c-13.1,0 -23.5,-10.4 -23.5,-22.4c0,-12 10.4,-24.1 23.5,-24.1c13.1,0 25.2,10.6 25.2,22.6c0,12 -12,23.9 -25.2,23.9z" data-paper-data="{&quot;origPos&quot;:null}"/><g data-paper-data="{&quot;origPos&quot;:null}"><path d="M225.14898,107.35001c-1.5,0.6 -3.1,-0.1 -3.7,-1.5c-0.6,-1.5 0.1,-3.1 1.5,-3.7c1.5,-0.6 3.1,0.1 3.7,1.5c0.6,1.5 -0.1,3.1 -1.5,3.7z" data-paper-data="{&quot;origPos&quot;:null}"/><path d="M221.64898,107.45001c-1.7,0.7 -3.5,-0.1 -4.2,-1.7c-0.7,-1.7 0.1,-3.5 1.7,-4.2c1.7,-0.7 3.5,0.1 4.2,1.7c0.7,1.6 -0.1,3.5 -1.7,4.2z" data-paper-data="{&quot;origPos&quot;:null}"/><path d="M218.94898,105.55001c-1.7,0.8 -3.6,-0.1 -4.4,-1.8c-0.8,-1.7 0.1,-3.7 1.8,-4.4c1.7,-0.8 3.7,0.1 4.4,1.8c0.7,1.7 -0.1,3.7 -1.8,4.4z" data-paper-data="{&quot;origPos&quot;:null}"/><path d="M215.44898,102.55001c-2.2,0.9 -4.8,-0.2 -5.7,-2.4c-0.9,-2.2 0.2,-4.8 2.4,-5.7c2.2,-0.9 4.8,0.2 5.7,2.4c1,2.3 -0.1,4.8 -2.4,5.7z" data-paper-data="{&quot;origPos&quot;:null}"/><path d="M213.94898,98.95001c-2.5,1.1 -5.3,-0.1 -6.3,-2.6c-1.1,-2.5 0.1,-5.2 2.6,-6.3c2.5,-1.1 5.3,0.1 6.3,2.6c1,2.4 -0.2,5.3 -2.6,6.3z" data-paper-data="{&quot;origPos&quot;:null}"/><path d="M209.24898,92.65c-1.9,0 -3.4,-1.5 -3.4,-3.4c0,-1.9 1.5,-3.4 3.4,-3.4c1.9,0 3.4,1.5 3.4,3.4c0,1.9 -1.5,3.4 -3.4,3.4z" data-paper-data="{&quot;origPos&quot;:null}"/><path d="M208.64898,87.95001c-2.4,0 -4.4,-2 -4.4,-4.4c0,-2.4 2,-4.4 4.4,-4.4c2.4,0 4.4,2 4.4,4.4c0,2.4 -2,4.4 -4.4,4.4z" data-paper-data="{&quot;origPos&quot;:null}"/><path d="M208.54898,83.85001c-2.6,0 -4.8,-2.2 -4.8,-4.8c0,-2.6 2.1,-4.8 4.8,-4.8c2.6,0 4.8,2.1 4.8,4.8c0,2.7 -2.1,4.8 -4.8,4.8z" data-paper-data="{&quot;origPos&quot;:null}"/><path d="M209.54898,77.65c-2.5,0 -4.5,-2 -4.5,-4.5c0,-2.5 2,-4.5 4.5,-4.5c2.5,0 4.5,2 4.5,4.5c0,2.5 -2,4.5 -4.5,4.5z" data-paper-data="{&quot;origPos&quot;:null}"/><path d="M212.24898,72.75001c-2.4,0 -4.4,-2 -4.4,-4.4c0,-2.4 2,-4.4 4.4,-4.4c2.4,0 4.4,2 4.4,4.4c0,2.5 -2,4.4 -4.4,4.4z" data-paper-data="{&quot;origPos&quot;:null}"/></g><g data-paper-data="{&quot;origPos&quot;:null}"><path d="M243.24898,106.15001c-2.1,0 -3.8,-1.7 -3.8,-3.8c0,-2.1 1.7,-3.8 3.8,-3.8c2.1,0 3.8,1.7 3.8,3.8c0,2.2 -1.7,3.8 -3.8,3.8z" data-paper-data="{&quot;origPos&quot;:null}"/><path d="M248.14898,102.35001c-2.3,0 -4.2,-1.9 -4.2,-4.2c0,-2.3 1.9,-4.2 4.2,-4.2c2.3,0 4.2,1.9 4.2,4.2c0,2.4 -1.9,4.2 -4.2,4.2z" data-paper-data="{&quot;origPos&quot;:null}"/><path d="M254.74898,98.95001c-2.1,0.5 -4.2,-0.7 -4.7,-2.8c-0.5,-2.1 0.7,-4.2 2.8,-4.7c2.1,-0.5 4.2,0.7 4.7,2.8c0.5,2.1 -0.7,4.2 -2.8,4.7z" data-paper-data="{&quot;origPos&quot;:null}"/><path d="M258.64898,94.05001c-2.3,0.6 -4.5,-0.7 -5.1,-3c-0.6,-2.3 0.8,-4.5 3,-5.1c2.3,-0.6 4.5,0.8 5.1,3c0.6,2.2 -0.7,4.5 -3,5.1z" data-paper-data="{&quot;origPos&quot;:null}"/><path d="M260.64898,91.25001c-1.9,0.5 -3.8,-0.7 -4.3,-2.6c-0.5,-1.9 0.7,-3.8 2.6,-4.3c1.9,-0.5 3.8,0.7 4.3,2.6c0.5,1.9 -0.7,3.8 -2.6,4.3z" data-paper-data="{&quot;origPos&quot;:null}"/><path d="M261.14898,87.45001c-2.3,0.6 -4.6,-0.8 -5.2,-3.1c-0.6,-2.3 0.8,-4.6 3.1,-5.2c2.3,-0.6 4.6,0.8 5.2,3.1c0.5,2.3 -0.9,4.6 -3.1,5.2z" data-paper-data="{&quot;origPos&quot;:null}"/><path d="M259.84898,81.25001c-2.3,0.6 -4.7,-0.9 -5.3,-3.2c-0.6,-2.3 0.9,-4.7 3.2,-5.3c2.3,-0.6 4.7,0.9 5.3,3.2c0.6,2.3 -0.8,4.7 -3.2,5.3z" data-paper-data="{&quot;origPos&quot;:null}"/><path d="M257.04898,74.85001c-1.9,0.5 -3.8,-0.7 -4.3,-2.6c-0.5,-1.9 0.7,-3.8 2.6,-4.3c1.9,-0.5 3.8,0.7 4.3,2.6c0.5,1.9 -0.7,3.8 -2.6,4.3z" data-paper-data="{&quot;origPos&quot;:null}"/><path d="M254.54898,70.35001c-1.8,0.4 -3.6,-0.6 -4,-2.4c-0.4,-1.8 0.6,-3.6 2.4,-4c1.8,-0.4 3.6,0.6 4,2.4c0.4,1.8 -0.6,3.6 -2.4,4z" data-paper-data="{&quot;origPos&quot;:null}"/><path d="M250.54898,68.75001c-1.9,0.4 -4,-0.8 -4.4,-2.7c-0.4,-1.9 0.7,-3.9 2.7,-4.4c1.9,-0.4 3.9,0.7 4.4,2.7c0.5,1.9 -0.7,3.9 -2.7,4.4z" data-paper-data="{&quot;origPos&quot;:null}"/></g></g><g data-paper-data="{&quot;origPos&quot;:null,&quot;index&quot;:null}" stroke="none" stroke-width="1" stroke-linecap="butt"><path d="M189.94898,308.85001l7.4,-6.8l9.4,-2.3l14.8,-0.6l0.9,9.7z" data-paper-data="{&quot;origPos&quot;:null}" fill="#ebebeb"/><path d="M202.64898,300.55001v-50.1l0.7,-62.3h30l-7.9,62l-3.7,50.4z" data-paper-data="{&quot;origPos&quot;:null}" fill="#5b7f88"/></g><g data-paper-data="{&quot;origPos&quot;:null,&quot;index&quot;:null}" stroke="none" stroke-width="1" stroke-linecap="butt"><path d="M227.84898,308.85001l7.4,-6.8l9.4,-2.3l14.8,-0.6l0.9,9.7z" data-paper-data="{&quot;origPos&quot;:null}" fill="#ebebeb"/><path d="M241.34898,300.55001l-4.7,-50.6l-8,-61.8h29l0.7,60.1l0.5,52.3z" data-paper-data="{&quot;origPos&quot;:null}" fill="#5b7f88"/></g><g data-paper-data="{&quot;origPos&quot;:null,&quot;index&quot;:null}" stroke="none" stroke-width="1" stroke-linecap="butt"><path d="M191.84898,163.75c0,0 2.3,-50 14.9,-46.6c7,1.7 -1.1,48.6 -1.1,48.6c0,0 -5.4,1.7 -8.6,1.3c-3.1,-0.4 -5.2,-3.3 -5.2,-3.3z" data-paper-data="{&quot;origPos&quot;:null}" fill="#774d16"/><path d="M187.44898,142.64999c0,0 11.5,-31 21.6,-29c11.5,2.2 2.5,35.1 2.5,35.1z" data-paper-data="{&quot;origPos&quot;:null}" fill="#a26e20"/></g><g data-paper-data="{&quot;origPos&quot;:null,&quot;index&quot;:null}" fill="#774d16" stroke="none" stroke-width="1" stroke-linecap="butt"><g data-paper-data="{&quot;origPos&quot;:null}"><path d="M191.64898,163.45c0,0 4.6,-0.8 7.3,-1c3.6,-0.3 6.7,3.9 6.7,3.9l-8.8,27.1l-8.2,-2.4z" data-paper-data="{&quot;origPos&quot;:null}"/></g><path d="M192.13324,213.62286c-1.82404,-0.0537 -4.12648,-2.85169 -4.12648,-2.85169c0,0 -3.09452,-5.50218 -3.00789,-9.56204c0.14463,-4.3542 4.53962,-10.6227 4.53962,-10.6227l7.27682,0.31292c0,0 5.66479,5.90678 4.60277,11.81289c-0.42394,2.66838 -2.95909,7.77456 -2.95909,7.77456c0,0 -2.74142,1.4982 -3.27353,0.57795c-0.434,-0.90092 1.17803,-6.49479 -0.17478,-6.3537c-1.7646,0.16186 -0.99397,9.18107 -2.87745,8.91181z" data-paper-data="{&quot;origPos&quot;:null,&quot;index&quot;:null,&quot;origRot&quot;:0}"/></g><path d="M230.94898,198.35003c-11.6,0.1 -28.7,-2.7 -28.7,-2.7c0,0 0.76666,-80.08889 3.06666,-81.28889c2.4,-1.3 13.33334,-5.51111 26.33334,-5.31111c13,0.2 28.2,8.1 28.2,8.1l-0.2,76.3c0,0 -16.9,4.7 -28.7,4.9z" data-paper-data="{&quot;origPos&quot;:null,&quot;index&quot;:null}" fill="#ba8026" stroke="none" stroke-width="1" stroke-linecap="butt"/><g data-paper-data="{&quot;index&quot;:null}" stroke="none" stroke-width="1" stroke-linecap="butt"><path d="M264.04898,168.35001c0,0 -18.4,-51.6 -7.2,-51.3c14.3,-0.3 19.9,50.3 19.9,50.3c0,0 -3.8,2 -6.3,2.2c-2.5,0.2 -6.4,-1.2 -6.4,-1.2z" data-paper-data="{&quot;origPos&quot;:null}" fill="#774d16"/><path d="M254.24898,152.35001c0,0 -13.8,-34.4 2.8,-36.2c7,-0.8 19.5,27.5 19.5,27.5z" data-paper-data="{&quot;origPos&quot;:null}" fill="#a26e20"/></g><g data-paper-data="{&quot;origPos&quot;:null,&quot;index&quot;:null}" fill="#774d16" stroke="none" stroke-width="1" stroke-linecap="butt"><path d="M267.04898,195.95001l-3.2,-27.7c0,0 3.5,-3.9 6.7,-3.3c2.3,0.4 6.3,1.6 6.3,1.6l-2.1,27.7z" data-paper-data="{&quot;origPos&quot;:null}"/><path d="M267.64898,215.35001c-1.9,-0.1 0.6,-8.8 -1.1,-9.3c-1.3,-0.4 -0.8,5.4 -1.4,6.2c-0.7,0.8 -3.1,-1.2 -3.1,-1.2c0,0 -1.5,-5.5 -1.4,-8.2c0.1,-6 6.8,-10.7 6.8,-10.7l7.2,1.1c0,0 3.1,7 2.4,11.3c-0.7,4 -4.8,8.8 -4.8,8.8c0,0 -2.8,2.3 -4.6,2z" data-paper-data="{&quot;origPos&quot;:null}"/></g><g data-paper-data="{&quot;index&quot;:null}" fill="#774d16" stroke="none" stroke-width="1" stroke-linecap="butt"><path d="M240.44898,110.85001c0,0 3.5,1.2 2,4.6c-3.9,6.9 -22.7,4.5 -22.8,0c-0.1,-2.8 4.8,-3.7 4.8,-3.7l-0.1,-9.1l15.2,-3.4z" data-paper-data="{&quot;origPos&quot;:null}"/><path d="M248.14898,84.75001c1.3,0.4 1.8,2.7 1,5.1c-0.8,2.4 -2.6,3.9 -4,3.4c-1.3,-0.4 -1.8,-2.7 -1,-5.1c0.8,-2.3 2.6,-3.8 4,-3.4z" data-paper-data="{&quot;origPos&quot;:null}"/><path d="M212.65074,85.65001c-2,-13.7 5.49824,-25.8 16.89824,-25.2c15,0.7 17.2,10.3 17.2,23.1c0,12.8 -7.6,22.5 -19.4,22.3c-6.8,-0.3 -14.7,-7.1 -14.7,-19.9z" data-paper-data="{&quot;origPos&quot;:null}"/></g><path d="M227.44898,98.25001c1.8,0 4,-0.8 4,0c0,0.8 -1.8,2.7 -3.5,2.7c-1.7,0 -3.7,-1.5 -3.7,-2.2c0,-0.8 1.4,-0.5 3.2,-0.5z" data-paper-data="{&quot;origPos&quot;:null,&quot;index&quot;:null}" fill="#000000" stroke="none" stroke-width="1" stroke-linecap="butt"/><path d="M227.24898,93.05001c0,0 -2.5,-1.4 -2.5,-2.1c-0.1,-1.6 2.2,-3.5 2.2,-3.5" data-paper-data="{&quot;origPos&quot;:null,&quot;index&quot;:null}" fill="none" stroke="#000000" stroke-width="1.46" stroke-linecap="round"/><g data-paper-data="{&quot;origPos&quot;:null,&quot;index&quot;:null}"><path d="M215.74898,79.05001c0,0 1.7,-0.4 3.2,-0.5c1.7,0 4,0.8 4,0.8" data-paper-data="{&quot;origPos&quot;:null}" fill="none" stroke="#000000" stroke-width="1.46" stroke-linecap="round"/><path d="M215.54898,82.75001c0,0 2.2,-0.9 4.5,-0.7c2.4,0.2 2.9,1.5 2.9,1.5" data-paper-data="{&quot;origPos&quot;:null}" fill="none" stroke="#000000" stroke-width="1.46" stroke-linecap="round"/><path d="M215.94898,84.25001c0,-1.2 0.9,-2.2 2.1,-2.2c1.2,0 2.1,1 2.1,2.2c0,1.2 -0.9,2.2 -2.1,2.2c-1.2,0 -2.2,-1 -2.1,-2.2z" data-paper-data="{&quot;origPos&quot;:null}" fill="#000000" stroke="none" stroke-width="1" stroke-linecap="butt"/></g><g data-paper-data="{&quot;origPos&quot;:null,&quot;index&quot;:null}"><path d="M230.24898,79.45001c0,0 2,-0.9 3.7,-0.8c1.5,0 4.4,0.8 4.4,0.8" data-paper-data="{&quot;origPos&quot;:null}" fill="none" stroke="#000000" stroke-width="1.46" stroke-linecap="round"/><path d="M231.04898,83.55001c0,0 0.4,-1.3 2.9,-1.5c2.3,-0.2 4.5,1.7 4.5,1.7" data-paper-data="{&quot;origPos&quot;:null}" fill="none" stroke="#000000" stroke-width="1.46" stroke-linecap="round"/><path d="M233.04898,86.75001c-1.2,0 -2.1,-1 -2.1,-2.2c0,-1.2 0.9,-2.2 2.1,-2.2c1.2,0 2.1,1 2.1,2.2c0,1.2 -1,2.2 -2.1,2.2z" data-paper-data="{&quot;origPos&quot;:null}" fill="#000000" stroke="none" stroke-width="1" stroke-linecap="butt"/></g><g data-paper-data="{&quot;index&quot;:null}" fill="#0a0602" stroke="none" stroke-linecap="butt"><path d="M248.94898,82.95001c-2.3,0 -4.1,-1.8 -4.1,-4.1c0,-2.3 1.8,-4.1 4.1,-4.1c2.3,0 4.1,1.8 4.1,4.1c0,2.3 -1.8,4.1 -4.1,4.1z" data-paper-data="{&quot;origPos&quot;:null}" stroke-width="1"/><path d="M247.67398,75.95001c-2.73851,0 -4.825,-2.08648 -4.825,-4.825c0,-2.73852 2.21689,-4.825 4.825,-4.825c2.60811,0 4.69459,2.21689 4.69459,4.825c0,2.60811 -2.08648,4.825 -4.69459,4.825z" data-paper-data="{&quot;origPos&quot;:null}" stroke-width="1"/><path d="M245.16509,73.81365c-3.16275,0.87854 -6.50121,-1.05425 -7.37975,-4.39271c-0.87854,-3.16275 1.22996,-6.50121 4.39271,-7.37975c3.16275,-0.87854 6.50121,1.05425 7.37975,4.39271c0.87854,3.33846 -1.05425,6.67692 -4.39271,7.37975z" data-paper-data="{&quot;origPos&quot;:null}" stroke-width="1"/><path d="M243.04898,66.25001c-2,0.5 -4,-0.7 -4.5,-2.7c-0.5,-2 0.7,-4 2.7,-4.5c2,-0.5 4,0.7 4.5,2.7c0.5,2 -0.7,4.1 -2.7,4.5z" data-paper-data="{&quot;origPos&quot;:null}" stroke-width="1"/><path d="M234.74898,62.85001c0.2,-2.1 2.1,-3.7 4.2,-3.5c2.1,0.2 3.7,2.1 3.5,4.2c-0.2,2.1 -2.1,3.7 -4.2,3.5c-2.1,-0.2 -3.7,-2.1 -3.5,-4.2z" data-paper-data="{&quot;origPos&quot;:null}" stroke-width="1"/><path d="M228.74898,61.05001c0.3,-2.4 2.4,-4.2 4.9,-4c2.4,0.3 4.2,2.4 4,4.9c-0.3,2.4 -2.4,4.2 -4.9,4c-2.4,-0.3 -4.2,-2.5 -4,-4.9z" data-paper-data="{&quot;origPos&quot;:null}" stroke-width="1"/><path d="M212.82448,75.30247c-1.51879,0 -2.75,-1.23122 -2.75,-2.75c0,-1.51878 1.23121,-2.75 2.75,-2.75c1.51879,0 2.75,1.23122 2.75,2.75c0,1.51878 -1.23121,2.75 -2.75,2.75z" data-paper-data="{&quot;origPos&quot;:null}" stroke-width="0"/><path d="M215.64898,72.15001c-2.6,0 -4.7,-2.1 -4.7,-4.7c0,-2.6 2.1,-4.7 4.7,-4.7c2.6,0 4.7,2.1 4.7,4.7c0,2.6 -2.1,4.7 -4.7,4.7z" data-paper-data="{&quot;origPos&quot;:null}" stroke-width="1"/><path d="M215.14898,62.15001c0.2,-1.6 1.6,-2.9 3.3,-2.7c1.6,0.2 2.9,1.6 2.7,3.3c-0.2,1.6 -1.6,2.9 -3.3,2.7c-1.6,-0.2 -2.9,-1.6 -2.7,-3.3z" data-paper-data="{&quot;origPos&quot;:null}" stroke-width="1"/><path d="M216.34898,65.95001c0.2,-1.8 1.8,-3.2 3.6,-3c1.8,0.2 3.2,1.8 3,3.6c-0.2,1.8 -1.8,3.2 -3.6,3c-1.8,-0.2 -3.1,-1.8 -3,-3.6z" data-paper-data="{&quot;origPos&quot;:null}" stroke-width="1"/><path d="M218.54898,62.75c0.3,-2.4 2.4,-4.2 4.9,-4c2.4,0.3 4.2,2.4 4,4.9c-0.3,2.4 -2.4,4.2 -4.9,4c-2.5,-0.2 -4.3,-2.4 -4,-4.9z" data-paper-data="{&quot;origPos&quot;:null}" stroke-width="1"/><path d="M228.14898,66.05001c-2.1,0 -3.9,-1.8 -3.9,-3.9c0,-2.1 1.7,-3.9 3.9,-3.9c2.1,0 3.9,1.7 3.9,3.9c0,2.2 -1.8,3.9 -3.9,3.9z" data-paper-data="{&quot;origPos&quot;:null}" stroke-width="1"/><path d="M247.44898,93.55001c-1.9,0 -3.5,-1.6 -3.5,-3.5c0,-1.9 1.6,-3.5 3.5,-3.5c1.9,0 3.5,1.6 3.5,3.5c0,1.9 -1.6,3.5 -3.5,3.5z" data-paper-data="{&quot;origPos&quot;:null}" stroke-width="1"/><path d="M247.64898,88.55001c-2.3,0 -4.1,-1.8 -4.1,-4.1c0,-2.3 1.8,-4.1 4.1,-4.1c2.3,0 4.1,1.8 4.1,4.1c0,2.3 -1.8,4.1 -4.1,4.1z" data-paper-data="{&quot;origPos&quot;:null}" stroke-width="1"/><path d="M243.64898,82.25001c-2.4,0 -4.3,-1.9 -4.3,-4.3c0,-2.4 1.9,-4.3 4.3,-4.3c2.4,0 4.3,1.9 4.3,4.3c0,2.3 -1.9,4.2 -4.3,4.3z" data-paper-data="{&quot;origPos&quot;:null}" stroke-width="1"/><path d="M239.24898,76.35001c-2.4,0 -4.4,-2 -4.4,-4.4c0,-2.4 2,-4.4 4.4,-4.4c2.4,0 4.4,2 4.4,4.4c0,2.4 -2,4.4 -4.4,4.4z" data-paper-data="{&quot;origPos&quot;:null}" stroke-width="1"/><path d="M234.14898,69.35001c-2.5,0 -4.5,-2 -4.5,-4.5c0,-2.5 2,-4.5 4.5,-4.5c2.5,0 4.5,2 4.5,4.5c0,2.5 -2,4.5 -4.5,4.5z" data-paper-data="{&quot;origPos&quot;:null}" stroke-width="1"/></g></g></g></svg>