<svg version="1.1" xmlns="http://www.w3.org/2000/svg" xmlns:xlink="http://www.w3.org/1999/xlink" width="91.75483" height="255.39998" viewBox="0,0,91.75483,255.39998"><g transform="translate(-185.39708,-53.65004)"><g data-paper-data="{&quot;isPaintingLayer&quot;:true}" fill-rule="nonzero" stroke-linejoin="miter" stroke-miterlimit="10" stroke-dasharray="" stroke-dashoffset="0" style="mix-blend-mode: normal"><g data-paper-data="{&quot;origPos&quot;:null,&quot;index&quot;:null}" stroke="none" stroke-width="1" stroke-linecap="butt"><path d="M189.94899,309.05002l7.4,-6.8l9.4,-2.3l14.8,-0.6l0.9,9.7z" fill="#ebebeb"/><path d="M202.64899,300.75001v-50.1l0.7,-62.3h30l-6.4,62l-3.7,50.4z" fill="#80bdc4"/></g><path d="M212.04899,63.85002c3.9,-8.5 20.9,-6.6 20.9,-6.6c11.2,0 19.2,4.6 19.2,18.9c0,3.7 0.3,6.4 -0.6,9.9c-2,7.8 -8.3,17.1 -8.3,17.1c0,0 -4.7,2.2 -11.6,2.2c-11.1,0 -20.1,-11.7 -20.1,-26c0,-14.3 -1.2,-11.7 0.5,-15.5z" data-paper-data="{&quot;index&quot;:null}" fill="#0a0500" stroke="none" stroke-width="1" stroke-linecap="butt"/><g data-paper-data="{&quot;index&quot;:null}" stroke="none" stroke-width="1" stroke-linecap="butt"><g data-paper-data="{&quot;origPos&quot;:null}" fill="#9b6a2d"><path d="M191.84899,163.72778c0,0 2.3,-50 14.9,-46.6c7,1.7 -1.1,48.6 -1.1,48.6c0,0 -5.4,1.7 -8.6,1.3c-3.1,-0.4 -5.2,-3.3 -5.2,-3.3z" data-paper-data="{&quot;origPos&quot;:null}"/></g><path d="M187.34898,142.62784c0,0 10.75,-30 20.85,-28c11.5,2.2 3.25,34.1 3.25,34.1z" data-paper-data="{&quot;origPos&quot;:null}" fill="#9e5011"/></g><g data-paper-data="{&quot;origPos&quot;:null,&quot;index&quot;:null}" stroke="none" stroke-width="1" stroke-linecap="butt"><path d="M227.84899,309.05002l7.4,-6.8l9.4,-2.3l14.8,-0.6l0.9,9.7z" fill="#ebebeb"/><path d="M239.84899,300.75001l-4.7,-50.6l-6.6,-61.8h29.1l0.7,60.1l0.5,52.3z" fill="#80bdc4"/></g><g data-paper-data="{&quot;origPos&quot;:null,&quot;index&quot;:null}" fill="#9b6a2d" stroke="none" stroke-width="1" stroke-linecap="butt"><g data-paper-data="{&quot;origPos&quot;:null}"><path d="M192.04899,163.22779c0,0 4.6,-0.8 7.3,-1c3.6,-0.3 6.7,3.9 6.7,3.9l-8.8,27.1l-8.2,-2.4z" data-paper-data="{&quot;origPos&quot;:null}"/></g><path d="M192.53325,213.40067c-1.82405,-0.0537 -4.12649,-2.85169 -4.12649,-2.85169c0,0 -3.09452,-5.50217 -3.00789,-9.56204c0.14464,-4.3542 4.53963,-10.6227 4.53963,-10.6227l7.27682,0.31292c0,0 5.66479,5.90678 4.60277,11.81289c-0.42395,2.66838 -2.95909,7.77456 -2.95909,7.77456c0,0 -2.74142,1.4982 -3.27353,0.57795c-0.434,-0.90091 1.17803,-6.49478 -0.17478,-6.35369c-1.7646,0.16186 -0.99397,9.18106 -2.87745,8.9118z" data-paper-data="{&quot;origPos&quot;:null,&quot;index&quot;:null,&quot;origRot&quot;:0}"/></g><path d="M231.34899,198.35003c-11.6,0.1 -28.7,-2.7 -28.7,-2.7c0,0 0.76666,-80.08889 3.06666,-81.28889c2.4,-1.3 13.33334,-5.51111 26.33334,-5.31111c13,0.2 28.2,8.1 28.2,8.1l-0.2,76.3c0,0 -16.9,4.7 -28.7,4.9z" data-paper-data="{&quot;origPos&quot;:null,&quot;index&quot;:null}" fill="#ba5f14" stroke="none" stroke-width="1" stroke-linecap="butt"/><g data-paper-data="{&quot;origPos&quot;:null,&quot;index&quot;:null}" stroke="none" stroke-width="1" stroke-linecap="butt"><path d="M264.04899,168.55004c0,0 -18.4,-51.6 -7.2,-51.3c14.3,-0.3 19.9,50.3 19.9,50.3c0,0 -3.8,2 -6.3,2.2c-2.5,0.2 -6.4,-1.2 -6.4,-1.2z" fill="#9b6a2d"/><path d="M254.24899,152.55001c0,0 -12.7,-35.1 3.9,-36.9c7,-0.8 18.4,28.2 18.4,28.2z" fill="#9e5011"/></g><g data-paper-data="{&quot;index&quot;:null}" fill="#9b6a2d" stroke="none" stroke-width="1" stroke-linecap="butt"><path d="M267.04899,196.15001l-3.2,-27.7c0,0 3.5,-3.9 6.7,-3.3c2.3,0.4 6.3,1.6 6.3,1.6l-2.1,27.7z"/><path d="M267.64899,215.55002c-1.9,-0.1 0.6,-8.8 -1.1,-9.3c-1.3,-0.4 -0.7,5.4 -1.4,6.2c-0.7,0.8 -3.1,-1.2 -3.1,-1.2c0,0 -1.5,-5.5 -1.4,-8.2c0.1,-6 6.8,-10.7 6.8,-10.7l7.2,1.1c0,0 3.1,7 2.4,11.3c-0.7,4 -4.8,8.8 -4.8,8.8c0,0 -2.8,2.3 -4.6,2z"/></g><g data-paper-data="{&quot;index&quot;:null}" fill="#9b6a2d" stroke="none" stroke-width="1" stroke-linecap="butt"><path d="M240.44899,111.05002c0,0 3.5,1.2 2,4.6c-3.9,6.9 -22.7,4.5 -22.8,0c-0.1,-2.8 4.8,-3.7 4.8,-3.7l-0.1,-9.1l15.2,-3.4z" data-paper-data="{&quot;origPos&quot;:null}"/><path d="M248.14899,84.95002c1.3,0.4 1.8,2.7 1,5.1c-0.8,2.4 -2.6,3.9 -4,3.4c-1.3,-0.4 -1.8,-2.7 -1,-5.1c0.8,-2.3 2.6,-3.9 4,-3.4z" data-paper-data="{&quot;origPos&quot;:null}"/><path d="M212.70021,85.85002c-2,-13.7 5.44878,-25.8 16.84878,-25.2c15,0.7 17.2,10.3 17.2,23.1c0,12.8 -7.6,22.5 -19.4,22.3c-6.8,-0.3 -14.7,-7.1 -14.7,-19.9z" data-paper-data="{&quot;origPos&quot;:null}"/></g><path d="M227.44899,98.35002c1.8,0 4,-0.8 4,0c0,0.8 -1.7,2.7 -3.5,2.7c-1.7,0 -3.7,-1.5 -3.7,-2.2c0,-0.7 1.5,-0.4 3.2,-0.5z" data-paper-data="{&quot;index&quot;:null}" fill="#000000" stroke="none" stroke-width="1" stroke-linecap="butt"/><path d="M227.24899,93.25004c0,0 -3.4,-1.4 -3.4,-2.1c-0.1,-1.5 2.2,-5.6 2.2,-5.6" data-paper-data="{&quot;index&quot;:null}" fill="none" stroke="#000000" stroke-width="1.46" stroke-linecap="round"/><g data-paper-data="{&quot;index&quot;:null}"><path d="M230.24899,79.65001c0,0 2,-0.9 3.7,-0.8c1.5,0 4.4,0.8 4.4,0.8" fill="none" stroke="#000000" stroke-width="1.46" stroke-linecap="round"/><g><path d="M231.04899,83.75002c0,0 0.4,-1.3 2.9,-1.5c2.3,-0.2 4.5,0.6 4.5,0.6" fill="none" stroke="#000000" stroke-width="1.46" stroke-linecap="round"/><path d="M233.04899,86.95002c-1.2,0 -2.1,-1 -2.1,-2.2c0,-1.2 0.9,-2.2 2.1,-2.2c1.2,0 2.1,1 2.1,2.2c0,1.2 -1,2.2 -2.1,2.2z" fill="#000000" stroke="none" stroke-width="1" stroke-linecap="butt"/></g></g><g data-paper-data="{&quot;index&quot;:null}"><path d="M215.74899,79.25004c0,0 1.7,-0.4 3.2,-0.5c1.7,0 4,0.8 4,0.8" fill="none" stroke="#000000" stroke-width="1.46" stroke-linecap="round"/><g><path d="M216.24899,82.65001c0,0 1.5,-0.7 3.8,-0.5c2.4,0.2 2.9,1.5 2.9,1.5" fill="none" stroke="#000000" stroke-width="1.46" stroke-linecap="round"/><path d="M215.94899,84.45004c0,-1.2 0.9,-2.2 2.1,-2.2c1.2,0 2.1,1 2.1,2.2c0,1.2 -0.9,2.2 -2.1,2.2c-1.2,0 -2.1,-1 -2.1,-2.2z" fill="#000000" stroke="none" stroke-width="1" stroke-linecap="butt"/></g></g><g data-paper-data="{&quot;index&quot;:null}" fill="#0a0500" stroke="none" stroke-width="1" stroke-linecap="butt"><path d="M211.14899,69.35004c-0.9,-2.2 1.6,-8.4 1.6,-8.4c4.2,-2.2 8.3,-7.3 17.2,-7.3c8.9,0 15,6.9 15,10.8c0,4.2 -1,5.9 -5.1,6.5c-3.7,0.5 -14.2,0.1 -17.9,0.1c-2.1,0 -7.2,2.6 -8.9,1.5z"/><path d="M250.24899,74.25002c0,5.9 -1.3,10.7 -3,10.7c-1.7,0 -6.1,-6.7 -6.1,-12.6c0,-5.9 -3.3,-9 4,-9c1.7,0 5.1,4.9 5.1,10.9z"/></g></g></g></svg>