<svg version="1.1" xmlns="http://www.w3.org/2000/svg" xmlns:xlink="http://www.w3.org/1999/xlink" width="81.08988" height="253.81094" viewBox="0,0,81.08988,253.81094"><g transform="translate(-190.11013,-55.23907)"><g data-paper-data="{&quot;isPaintingLayer&quot;:true}" fill-rule="nonzero" stroke-linejoin="miter" stroke-miterlimit="10" stroke-dasharray="" stroke-dashoffset="0" style="mix-blend-mode: normal"><g data-paper-data="{&quot;origPos&quot;:null,&quot;index&quot;:null}" fill="#000000" stroke="none" stroke-width="1" stroke-linecap="butt"><path d="M245.11012,81.55003c-2.1,-13.2 -10,-15.1 -9.5,-18.2c0.6,-3.9 11.7,2.6 14.9,18c1,9.3 -0.1,9.2 -0.5,18.5c-0.2,4.3 1.7,8.7 -1.7,9.6c-3.3,0.7 -2.8,-5.8 -2.7,-10.1c0.1,-4.2 1.3,-6.3 -0.5,-17.8z" data-paper-data="{&quot;origPos&quot;:null}"/><path d="M243.31012,71.25003c2.6,-0.3 3.3,10.3 4.3,18.7c0.9,7.3 2.6,14.9 0.1,15.4c-3.5,0.7 -3.5,-6.9 -4.5,-15.1c-1,-8.5 -2.8,-19.1 0.1,-19z" data-paper-data="{&quot;origPos&quot;:null}"/><path d="M217.31012,77.25003c1.9,0.4 1.2,7.2 0.6,15.6c-0.5,7.4 -1,15.1 -3.7,14.7c-2.7,-0.4 -1.2,-6.9 -0.6,-15.2c0.6,-8.4 0.9,-15.7 3.7,-15.1z" data-paper-data="{&quot;origPos&quot;:null}"/><path d="M241.31012,81.75003c2.1,0.1 2.4,6.9 3.2,15.3c0.7,7.3 2.3,15 -0.3,15.4c-3.5,0.6 -3.3,-7 -4.1,-15.2c-0.8,-8.4 -1.7,-15.6 1.2,-15.5z" data-paper-data="{&quot;origPos&quot;:null}"/><path d="M237.51012,83.05003c2,0.3 1.7,7 1.7,15.5c0,7.3 0.8,15.1 -1.8,15.3c-3.5,0.3 -2.6,-7.2 -2.6,-15.5c0,-8.5 -0.2,-15.7 2.7,-15.3z" data-paper-data="{&quot;origPos&quot;:null}"/><path d="M223.61012,82.55003c1.9,0.4 1.1,7.2 0.5,15.6c-0.6,7.4 -0.3,15.2 -2.9,15.2c-3.5,0 -2.1,-7.4 -1.5,-15.7c0.6,-8.4 0.9,-15.7 3.9,-15.1z" data-paper-data="{&quot;origPos&quot;:null}"/></g><g data-paper-data="{&quot;origPos&quot;:null,&quot;index&quot;:null}" fill="#000000" stroke="none" stroke-width="1" stroke-linecap="butt"><path d="M232.81012,63.85003c-3.8,-3 5.5,-12.2 12.3,-7.1c8.6,6.5 0.7,15.6 -3.2,11.5c-2.2,-2.3 7.4,-5.4 0.6,-8c-7.9,-3.1 -6.9,5.9 -9.7,3.6z"/><path d="M239.91012,64.35003c-2.5,-2.7 -2.5,2.1 -4.3,0.8c-2.7,-1.9 0.6,-9.3 7.1,-5c5.1,3.4 1.45,10.35 -1.85,8c-2.6,-0.9 1.35,-1.5 -0.95,-3.8z"/></g><g data-paper-data="{&quot;index&quot;:null}" stroke="none" stroke-width="1" stroke-linecap="butt"><path d="M194.11012,309.05001l6.3,-6.8l8.1,-2.3l12.6,-0.6l0.7,9.7z" fill="#ebebeb"/><path d="M206.21012,300.75003v-50.1v-62.3h25.6l-6.3,62l-5.1,50.4z" fill="#7194cc"/></g><g data-paper-data="{&quot;index&quot;:null}" stroke="none" stroke-width="1" stroke-linecap="butt"><path d="M227.71012,309.05001l6.3,-6.8l8.1,-2.3l12.6,-0.6l0.7,9.7z" fill="#ebebeb"/><path d="M239.61012,300.75003l-4.8,-50.6l-5.8,-61.8h24.8v60.1v52.3z" fill="#7194cc"/></g><g data-paper-data="{&quot;index&quot;:null}" fill="#72471e" stroke="none" stroke-width="1" stroke-linecap="butt"><path d="M195.71012,163.65003c0,0 3.4,-0.8 5.4,-1c2.7,-0.3 5,3.9 5,3.9l-6.6,27.1l-6.1,-2.4z"/><path d="M192.81013,210.85003c0,0 -2.7,-5.1 -2.7,-9.1c0,-4.3 3.6,-11 3.6,-11l6.1,-0.4c0,0 4.9,5.2 4.1,11.3c-0.3,2.7 -2.3,8 -2.3,8c0,0 -2.3,1.8 -2.7,0.9c-0.4,-0.9 0.9,-6.6 -0.2,-6.3c-1.5,0.4 -0.6,9.2 -2.2,9.2c-1.7,0 -3.7,-2.6 -3.7,-2.6z"/></g><g data-paper-data="{&quot;index&quot;:null}" stroke="none" stroke-width="1" stroke-linecap="butt"><path d="M195.71014,163.95001c0,0 1.7,-50 11.1,-46.6c5.2,1.7 -0.8,48.6 -0.8,48.6c0,0 -4,1.7 -6.4,1.3c-2.4,-0.4 -3.9,-3.3 -3.9,-3.3z" fill="#72471e"/><path d="M192.31012,142.85003c0,0 8.6,-31 16.2,-29c8.7,2.2 1.9,35.1 1.9,35.1z" fill="#a789d6"/></g><path d="M205.11012,190.25003l2.2,-77.5c0,0 12.8,-3.8 24.8,-3.6c11.9,0.2 23.3,5.9 23.3,5.9l0.7,76.2z" data-paper-data="{&quot;origPos&quot;:null,&quot;index&quot;:null}" fill="#b598e2" stroke="none" stroke-width="1" stroke-linecap="butt"/><g data-paper-data="{&quot;index&quot;:null}" fill="#72471e" stroke="none" stroke-width="1" stroke-linecap="butt"><path d="M246.91013,84.95002c1.3,0.4 1.8,2.7 1,5.1c-0.8,2.4 -2.6,3.9 -4,3.4c-1.3,-0.4 -1.8,-2.7 -1,-5.1c0.8,-2.3 2.6,-3.9 4,-3.4z" data-paper-data="{&quot;origPos&quot;:null}"/><path d="M237.11013,110.65002c0,0 5.4,1.6 3.9,5c-3.9,6.9 -22.7,4.5 -22.8,0c-0.1,-2.8 4.8,-3.7 4.8,-3.7l-0.1,-9.1l13.6,-1.7z" data-paper-data="{&quot;origPos&quot;:null}"/><path d="M211.44763,85.85002c-2,-13.7 5.4625,-25.8 16.8625,-25.2c15,0.7 17.2,10.3 17.2,23.1c0,12.8 -7.6,22.5 -19.4,22.3c-6.8,-0.3 -14.7,-7.1 -14.7,-19.9z" data-paper-data="{&quot;origPos&quot;:null}"/></g><g data-paper-data="{&quot;origPos&quot;:null,&quot;index&quot;:null}" stroke="none" stroke-width="1" stroke-linecap="butt"><path d="M260.31012,168.55003c0,0 -15.3,-51.6 -6,-51.3c11.9,-0.3 16.5,50.3 16.5,50.3c0,0 -3.2,2 -5.2,2.2c-2.1,0.2 -5.3,-1.2 -5.3,-1.2z" fill="#72471e"/><path d="M252.21012,152.55002c0,0 -10.5,-35.1 3.2,-36.9c5.8,-0.8 15.2,28.2 15.2,28.2z" fill="#a789d6"/></g><g data-paper-data="{&quot;origPos&quot;:null,&quot;index&quot;:null}"><path d="M229.01012,79.65003c0,0 2,-0.9 3.7,-0.8c1.5,0 4.4,0.8 4.4,0.8" fill="none" stroke="#000000" stroke-width="1.46" stroke-linecap="round"/><g><path d="M229.81012,83.85003c0,0 0.4,-1.3 2.9,-1.5c2.3,-0.2 4.5,1.7 4.5,1.7" fill="none" stroke="#000000" stroke-width="1.46" stroke-linecap="round"/><path d="M231.71012,86.95003c-1.2,0 -2.1,-1 -2.1,-2.2c0,-1.2 0.9,-2.2 2.1,-2.2c1.2,0 2.1,1 2.1,2.2c0,1.2 -0.9,2.2 -2.1,2.2z" fill="#000000" stroke="none" stroke-width="1" stroke-linecap="butt"/></g></g><path d="M211.41013,77.35002c0.5,-6.5 5.4,-17.3 16.8,-16.7c21.4,-0.2 17.9,24.7 17.9,24.7l-2.6,0.8c0,0 -0.9,-11.5 -6.6,-14.4c-2.3,-1.1 -14.8,-1.5 -17.3,-1c-8.1,1.6 -8.2,6.5 -8.2,6.6z" data-paper-data="{&quot;origPos&quot;:null,&quot;index&quot;:null}" fill="#35210e" stroke="none" stroke-width="1" stroke-linecap="butt"/><g data-paper-data="{&quot;origPos&quot;:null,&quot;index&quot;:null}"><path d="M214.51012,79.35003c0,0 1.7,-0.4 3.2,-0.5c1.7,0 4,0.8 4,0.8" fill="none" stroke="#000000" stroke-width="1.46" stroke-linecap="round"/><g><path d="M214.21012,83.95002c0,0 2.2,-1.9 4.5,-1.7c2.4,0.2 2.9,1.5 2.9,1.5" fill="none" stroke="#000000" stroke-width="1.46" stroke-linecap="round"/><path d="M214.91012,84.45003c0,-1.2 0.9,-2.2 2.1,-2.2c1.2,0 2.1,1 2.1,2.2c0,1.2 -0.9,2.2 -2.1,2.2c-1.2,0 -2.1,-1 -2.1,-2.2z" fill="#000000" stroke="none" stroke-width="1" stroke-linecap="butt"/></g></g><g data-paper-data="{&quot;origPos&quot;:null,&quot;index&quot;:null}" fill="none" stroke="#d20000" stroke-width="1.46"><path d="M228.51012,88.75003v-8.4h10.6v8.4z" stroke-linecap="butt"/><path d="M211.81012,88.75003v-8.4h10.9v8.4z" stroke-linecap="butt"/><path d="M228.01012,84.75003l-4.4,-0.01818" data-paper-data="{&quot;origPos&quot;:null}" stroke-linecap="round"/><path d="M244.81012,84.75003l-4.9,-0.4" stroke-linecap="round"/></g><g data-paper-data="{&quot;origPos&quot;:null,&quot;index&quot;:null}" fill="#000000" stroke="none" stroke-width="1" stroke-linecap="butt"><g data-paper-data="{&quot;origPos&quot;:null}"><path d="M240.11012,78.95003c3.4,11.7 6.2,18.4 3.7,19.6c-3.9,1.9 -4.6,-5.9 -7.7,-16.9c-3.7,-12.9 -10.4,-10.9 -10.8,-14.1c-0.3,-3.2 10.5,-3.7 14.8,11.4z"/><path d="M225.51012,67.55003c-0.3,5.6 -8.5,0.8 -11.1,11.6c-1.6,6.7 0.4,11.6 -2.4,11.8c-3.6,0.2 -3.1,-3.6 -1.6,-13.6c1.8,-12.3 15.5,-13 15.1,-9.8z"/><path d="M244.27679,73.48336c4.89113,8.88127 4.96666,10.76667 2.53333,12.26667c-2.36667,1.8 -2.5,-3.9 -6,-9.2c-3.5,-5.3 -10,-2.5 -10.4,-7c-0.1,-2.2 8.97554,-4.94794 13.86667,3.93333z" data-paper-data="{&quot;origPos&quot;:null}"/><path d="M237.91012,72.25003c3,-1.1 2.8,4 4.4,7c1.6,3 7.5,2.3 5.8,5.4c-1.7,3.1 -6.5,-0.8 -8.3,-2.8c-2.9,-3.2 -4.1,-8.9 -1.9,-9.6z"/></g><g data-paper-data="{&quot;origPos&quot;:null}"><path d="M217.31012,63.75001c1.5,-2.3 2.7,-5.2 5.2,-3.5c2,1.5 0.4,2.9 -1.2,5.9c-1.4,2.5 -3.2,5.6 -5.3,4.3c-2.4,-1.5 -0.7,-3.7 1.3,-6.7z"/><path d="M222.91012,62.95003c1.5,-2.3 2.7,-5.2 5.2,-3.5c2,1.5 0.4,2.9 -1.2,5.9c-1.4,2.5 -3.2,5.6 -5.3,4.3c-2.4,-1.4 -0.7,-3.6 1.3,-6.7z"/><path d="M228.21012,63.25001c1.5,-2.3 2.7,-5.2 5.2,-3.5c2,1.5 0.4,2.9 -1.2,5.9c-1.4,2.5 -3.2,5.6 -5.3,4.3c-2.4,-1.5 -0.8,-3.7 1.3,-6.7z"/><path d="M233.51012,63.55003c2.1,-1.7 4.1,-4.1 6,-1.7c1.5,2.1 -0.6,3 -3,5.3c-2,2 -4.7,4.4 -6.3,2.5c-1.9,-2.1 0.4,-3.7 3.3,-6.1z"/><path d="M238.01012,66.15003c2.6,-1 5.2,-2.7 6.3,0.1c0.9,2.4 -1.3,2.7 -4.3,4.2c-2.6,1.4 -5.8,2.8 -6.8,0.6c-1.1,-2.6 1.5,-3.5 4.8,-4.9z"/><path d="M234.51012,73.35002c-0.3,-2.8 2.4,-2.9 6.1,-3.2c2.7,-0.2 5.8,-1.1 6,1.9c0.1,2.5 -2.1,2.1 -5.4,2.7c0,0 -6.3,1.3 -6.7,-1.4z" data-paper-data="{&quot;origPos&quot;:null}"/></g></g><g data-paper-data="{&quot;index&quot;:null}" fill="#72471e" stroke="none" stroke-width="1" stroke-linecap="butt"><path d="M262.71012,196.15003l-2.6,-27.7c0,0 2.9,-3.9 5.6,-3.3c2,0.4 5.3,1.6 5.3,1.6l-1.8,27.7z"/><path d="M263.01012,215.55003c-1.6,-0.1 0.5,-8.8 -0.9,-9.3c-1.1,-0.4 -0.6,5.4 -1.1,6.2c-0.5,0.8 -2.5,-1.2 -2.5,-1.2c0,0 -1.1,-5.5 -1.1,-8.2c0.1,-6 5.7,-10.7 5.7,-10.7l6,1.1c0,0 2.6,7 2,11.3c-0.6,4 -4,8.8 -4,8.8c0,0 -2.3,2.3 -4.1,2z"/></g><path d="M226.21012,98.45003c1.8,0 4,-0.7 4,0c0,0.8 -1.7,2.7 -3.5,2.7c-1.7,0 -3.7,-1.5 -3.7,-2.2c0,-0.7 1.4,-0.5 3.2,-0.5z" data-paper-data="{&quot;index&quot;:null}" fill="#000000" stroke="none" stroke-width="1" stroke-linecap="butt"/><path d="M226.01012,93.25003c0,0 -2.5,-1.4 -2.5,-2.1c-0.1,-1.6 2.2,-3.5 2.2,-3.5" data-paper-data="{&quot;index&quot;:null}" fill="none" stroke="#000000" stroke-width="1.46" stroke-linecap="round"/></g></g></svg>